<?xml version="1.0" standalone="no"?>
<!DOCTYPE svg PUBLIC "-//W3C//DTD SVG 20010904//EN"
 "http://www.w3.org/TR/2001/REC-SVG-20010904/DTD/svg10.dtd">
<svg version="1.0" xmlns="http://www.w3.org/2000/svg"
 width="1215.000000pt" height="1215.000000pt" viewBox="0 0 1215.000000 1215.000000"
 preserveAspectRatio="xMidYMid meet">
<metadata>
Created by potrace 1.14, written by Peter Selinger 2001-2017
</metadata>
<g transform="translate(0.000000,1215.000000) scale(0.100000,-0.100000)"
fill="#000000" stroke="none">
<path d="M6231 11518 c-24 -6 -31 -12 -23 -20 8 -8 23 -5 54 10 45 22 29 28
-31 10z"/>
<path d="M6053 11494 c-34 -8 -79 -23 -100 -34 -21 -11 -45 -20 -53 -20 -9 0
-25 -7 -36 -15 -10 -8 -26 -15 -35 -15 -8 0 -47 -25 -86 -55 -39 -30 -74 -55
-78 -55 -4 0 -26 -15 -49 -32 -22 -18 -50 -40 -60 -48 -11 -8 -35 -30 -53 -47
-21 -22 -38 -31 -50 -27 -15 5 -16 4 -3 -5 15 -10 13 -12 -12 -15 -7 -1 -12
-9 -10 -19 2 -9 -2 -16 -9 -15 -6 2 -23 -19 -38 -47 -14 -27 -34 -61 -44 -75
-17 -25 -17 -25 -14 31 3 42 9 62 26 80 13 13 28 36 33 52 6 15 14 27 19 27 4
0 8 16 7 36 -1 34 -2 35 -15 18 -8 -11 -24 -37 -35 -58 -26 -52 -59 -85 -65
-68 -6 16 -33 -3 -33 -24 0 -14 -22 -19 -33 -7 -8 7 33 65 73 103 35 34 104
130 93 130 -5 0 -24 -16 -43 -35 -19 -20 -44 -35 -56 -35 -13 0 -39 -16 -60
-37 -20 -21 -40 -37 -45 -36 -4 2 -6 -5 -2 -15 5 -13 3 -14 -7 -5 -9 8 -18 6
-37 -10 -32 -27 -143 -172 -143 -186 0 -20 -63 -82 -77 -77 -8 3 -11 1 -8 -4
3 -6 1 -10 -6 -10 -29 0 -169 -94 -222 -149 -32 -33 -78 -70 -103 -81 -24 -12
-62 -44 -85 -71 -22 -27 -46 -49 -52 -49 -7 0 -19 -14 -27 -30 -8 -17 -35 -62
-59 -100 -64 -103 -44 -96 24 7 31 48 68 99 81 113 69 74 89 91 93 79 2 -7 -8
-22 -23 -34 -38 -30 -124 -171 -142 -232 -17 -58 -16 -109 2 -106 7 1 15 -10
19 -25 4 -15 14 -35 22 -44 9 -10 13 -25 9 -34 -6 -16 -8 -16 -25 0 -11 10
-24 34 -30 54 -11 37 -11 37 -6 -11 4 -39 12 -55 45 -89 22 -23 40 -45 40 -48
0 -13 -46 -27 -87 -25 -56 2 -76 20 -70 62 3 19 2 31 -3 28 -5 -3 -11 29 -13
72 l-3 78 -2 -87 c-1 -54 -6 -90 -14 -94 -24 -15 -109 106 -133 188 l-15 53 5
-48 c3 -27 14 -61 25 -77 11 -15 20 -32 20 -37 0 -5 15 -31 34 -57 30 -43 32
-51 23 -77 -9 -22 -18 -29 -39 -29 -48 0 -164 -29 -219 -54 -61 -28 -120 -82
-146 -135 -10 -20 -30 -56 -45 -81 -30 -51 -49 -105 -79 -223 -13 -50 -34
-100 -53 -127 -37 -52 -88 -155 -110 -220 -8 -25 -31 -81 -51 -125 -41 -88
-69 -166 -109 -298 -24 -78 -25 -90 -12 -108 14 -21 7 -66 -23 -142 -17 -43
-13 -52 9 -26 l20 24 -5 -70 c-2 -38 -7 -113 -11 -165 -3 -52 -12 -107 -20
-122 -15 -29 -20 -63 -6 -41 16 26 37 -5 37 -55 0 -44 2 -47 13 -30 7 10 18
16 23 13 5 -4 3 -12 -5 -20 -17 -18 -31 -98 -16 -103 5 -2 10 -25 11 -50 0
-26 4 -56 8 -67 7 -17 9 -16 15 9 4 16 10 26 13 22 3 -3 0 -24 -7 -46 -15 -46
-7 -63 15 -34 14 17 15 13 9 -51 -3 -38 -12 -85 -20 -103 -7 -18 -9 -30 -4
-27 15 9 21 -12 10 -39 -7 -19 -6 -25 3 -23 7 1 13 -13 15 -38 l4 -40 14 30
c9 20 12 22 8 7 -4 -18 -1 -25 15 -29 12 -3 21 -12 21 -19 0 -8 5 -14 11 -14
6 0 19 -10 29 -22 l18 -23 -5 28 c-3 15 -1 27 5 27 9 0 22 -46 22 -79 0 -33
-13 -40 -57 -30 -49 10 -145 -1 -150 -18 -2 -6 12 -27 32 -46 31 -30 35 -39
26 -56 -16 -29 -14 -50 3 -28 14 18 62 25 51 7 -3 -6 1 -13 11 -17 16 -6 16
-7 0 -19 -11 -8 -13 -14 -7 -19 6 -3 11 -1 11 5 0 6 5 8 11 4 25 -15 -14 -21
-53 -7 -34 11 -43 12 -50 1 -7 -10 -11 -9 -19 5 -5 9 -17 17 -26 17 -18 0
-105 41 -114 53 -6 8 -22 -29 -20 -45 0 -4 -8 -10 -19 -13 -10 -3 -22 -15 -25
-26 -4 -10 -11 -17 -16 -14 -5 4 -9 -1 -9 -9 0 -9 -5 -16 -11 -16 -5 0 -7 -5
-4 -10 4 -6 -3 -26 -16 -46 -21 -34 -21 -42 -14 -162 4 -70 7 -138 6 -151 0
-14 6 -35 14 -47 8 -13 13 -29 10 -36 -3 -7 4 -41 14 -75 11 -35 15 -63 10
-63 -5 0 -9 -5 -9 -11 0 -6 7 -8 16 -5 19 7 47 -12 38 -26 -3 -5 2 -20 11 -35
9 -14 17 -41 17 -59 0 -19 6 -41 14 -49 19 -18 45 -91 36 -100 -4 -4 1 -11 11
-16 22 -13 45 -67 53 -129 5 -35 10 -47 20 -43 11 4 14 -6 14 -43 0 -44 3 -51
31 -67 17 -9 29 -23 26 -30 -3 -7 1 -21 8 -31 7 -9 11 -30 8 -47 -4 -28 11
-42 20 -16 2 6 2 2 0 -10 -2 -17 1 -21 12 -17 9 4 22 -6 36 -30 20 -35 39 -47
39 -25 0 5 5 7 11 3 13 -8 77 25 84 44 10 26 -7 63 -36 78 -34 17 -38 34 -8
34 14 0 19 5 16 14 -7 19 36 62 68 68 14 3 25 1 25 -3 0 -5 6 -9 13 -9 22 0
50 -78 48 -136 0 -30 3 -54 8 -54 5 0 8 -8 6 -17 -1 -10 2 -26 7 -36 5 -9 5
-23 1 -30 -4 -6 -6 -20 -5 -29 4 -21 -28 -67 -46 -68 -9 0 -10 5 -2 19 14 28
13 50 -5 68 -9 8 -19 28 -22 44 -7 39 -17 43 -48 23 -17 -11 -25 -24 -22 -35
3 -11 -4 -21 -18 -27 -20 -9 -22 -18 -24 -84 -1 -40 -4 -82 -7 -92 -5 -15 -3
-18 11 -12 16 6 17 1 12 -34 -3 -23 -1 -38 4 -34 5 3 4 -7 -1 -21 -12 -32 -2
-54 54 -112 33 -34 44 -41 56 -32 13 9 13 10 -2 6 -10 -4 -22 3 -32 16 -8 12
-28 37 -45 56 -29 34 -32 51 -9 51 6 0 8 -3 5 -6 -3 -4 -2 -15 3 -25 22 -40
94 3 114 69 4 12 11 22 15 22 11 0 51 93 51 119 0 11 4 22 8 25 4 2 9 21 10
40 2 27 -4 42 -21 60 -16 16 -21 28 -15 34 6 6 7 16 2 24 -17 27 -14 48 7 48
13 0 25 -11 34 -34 18 -43 29 -50 48 -31 24 24 47 19 47 -10 0 -17 -7 -28 -22
-34 -15 -5 -18 -10 -9 -15 9 -6 9 -11 0 -22 -6 -8 -9 -23 -6 -34 6 -24 -12
-102 -27 -112 -8 -6 -6 -11 4 -17 12 -9 12 -11 -3 -17 -10 -3 -17 -17 -17 -32
0 -29 -15 -20 -23 13 -3 13 -5 9 -6 -12 0 -17 6 -39 15 -47 11 -11 16 -37 17
-87 1 -38 3 -66 5 -61 4 12 42 3 42 -9 0 -5 -6 -9 -14 -9 -8 0 -22 -10 -30
-22 -11 -16 -26 -22 -53 -22 -20 0 -38 5 -41 12 -5 17 -31 42 -44 42 -21 0 58
-79 102 -102 35 -18 61 -23 118 -23 39 0 72 -3 72 -7 0 -4 7 -5 15 -2 8 4 15
17 15 31 0 22 -2 24 -15 13 -25 -21 -25 -7 0 45 25 52 25 66 1 46 -12 -10 -18
-8 -31 13 -14 22 -16 37 -8 107 7 60 6 87 -3 105 -10 18 -10 29 -1 49 17 35
30 31 22 -6 -6 -24 -4 -30 6 -26 8 2 13 10 12 16 -2 6 2 11 9 11 6 0 4 8 -7
20 -10 11 -15 26 -11 36 3 8 3 21 -1 27 -4 6 -8 43 -9 81 -1 39 -3 71 -4 71
-2 0 -4 52 -5 115 -2 63 -8 135 -13 160 -6 25 -12 82 -13 128 -2 46 -6 85 -9
87 -3 2 -5 117 -5 257 1 207 4 261 17 300 9 25 19 63 22 85 4 21 13 63 21 93
8 30 26 102 40 160 26 106 54 190 80 245 8 17 27 62 41 100 15 39 38 80 51 93
13 12 22 26 19 31 -3 5 3 11 13 14 12 3 25 24 36 58 10 29 24 60 32 67 7 7 14
16 14 20 7 38 10 56 18 112 5 36 11 101 14 145 3 44 8 87 12 96 7 19 14 195
21 574 2 149 7 288 10 310 9 67 9 89 0 114 -5 14 -4 21 1 18 15 -9 36 78 28
121 -4 26 -2 42 5 47 6 4 8 15 5 26 -5 14 -2 19 12 19 11 0 14 3 6 8 -6 4 -9
19 -6 34 3 15 9 25 14 22 5 -3 9 6 9 20 0 14 4 26 8 26 5 0 9 6 10 13 1 6 6
32 12 57 6 25 11 51 12 58 1 6 8 12 17 12 16 0 41 42 41 67 0 7 7 13 15 13 8
0 15 6 15 14 0 8 10 16 23 20 12 3 32 14 44 26 12 11 27 20 33 20 5 0 10 6 10
13 0 19 39 38 78 39 18 1 37 7 43 15 6 7 25 13 41 13 17 0 27 4 23 10 -3 6 3
10 15 10 24 0 53 24 42 35 -4 5 -1 5 6 1 18 -11 104 3 97 15 -4 5 5 9 19 9 14
0 26 5 26 10 0 6 14 10 30 10 17 0 30 -4 30 -10 0 -5 22 -10 49 -10 33 0 55
-6 66 -17 13 -13 39 -16 135 -17 65 -1 122 -5 127 -9 4 -5 -6 -6 -22 -3 -24 5
-26 4 -10 -3 11 -5 67 -11 125 -12 78 -1 95 -4 65 -9 -29 -5 -14 -7 55 -7 73
0 84 2 50 7 -36 6 -27 7 48 8 55 1 91 -2 87 -7 -3 -6 34 -11 87 -14 51 -2 113
-10 138 -17 25 -7 86 -16 135 -21 147 -13 183 -20 160 -30 -18 -8 -17 -8 5 -6
14 1 24 8 23 14 -2 9 4 10 23 3 14 -6 30 -7 35 -4 6 3 18 -1 27 -9 10 -9 37
-20 62 -26 35 -8 48 -7 61 5 21 19 69 19 69 -1 0 -19 19 -20 26 -2 3 10 27 14
82 14 70 0 81 3 123 31 26 18 52 32 58 32 6 0 11 5 11 10 0 6 5 10 12 10 6 0
23 10 37 23 21 18 23 19 11 2 -8 -11 -23 -26 -32 -33 -29 -21 -22 -35 15 -28
39 8 127 -13 127 -30 0 -8 28 -14 83 -17 103 -7 179 -22 237 -49 50 -23 150
-49 162 -42 4 3 17 0 29 -6 11 -7 60 -23 108 -37 47 -14 91 -28 96 -33 16 -12
82 -21 205 -26 88 -4 126 -10 163 -26 26 -12 43 -24 38 -28 -6 -3 8 -37 31
-75 22 -39 65 -113 95 -165 31 -52 64 -101 74 -108 11 -7 19 -22 19 -33 0 -16
5 -19 19 -14 16 5 18 2 14 -15 -3 -13 -11 -19 -19 -16 -16 6 -18 -3 -5 -37 8
-20 86 -77 105 -77 15 0 3 24 -29 57 -19 20 -35 42 -35 50 0 23 47 -17 59 -49
6 -16 17 -28 25 -28 9 0 16 -4 16 -8 0 -4 14 -13 30 -19 36 -13 32 -1 -12 35
-15 13 -30 33 -34 45 -4 12 -15 29 -25 38 -21 18 -25 44 -9 54 6 3 13 -1 16
-9 3 -9 11 -16 17 -16 6 0 24 -15 40 -32 l28 -33 -13 30 c-18 43 -57 105 -89
140 -14 17 -30 44 -34 60 -3 17 -18 46 -33 65 -21 29 -22 32 -4 16 12 -10 34
-40 49 -65 24 -42 73 -98 73 -84 0 3 -11 20 -24 37 -13 17 -26 41 -30 52 -8
25 -85 114 -99 114 -4 0 -15 7 -23 15 -18 18 -4 20 15 3 11 -11 12 -8 7 14 -3
14 -9 34 -12 45 -5 16 -4 16 10 -2 8 -11 25 -35 38 -53 13 -19 34 -44 46 -55
13 -12 31 -35 39 -52 9 -16 41 -57 71 -90 30 -33 61 -74 68 -92 8 -17 18 -34
23 -37 5 -4 13 -21 17 -38 3 -18 10 -39 14 -48 4 -8 15 -42 25 -75 10 -33 24
-77 31 -98 20 -53 16 -80 -4 -32 -28 66 -50 102 -67 108 -20 8 -19 0 4 -29 11
-14 23 -44 26 -67 4 -23 13 -58 20 -77 19 -51 27 -90 17 -90 -9 0 -62 139 -62
162 0 9 -12 26 -26 39 -14 13 -37 36 -52 52 -48 52 -59 27 -12 -31 20 -26 29
-47 27 -67 -2 -24 2 -31 21 -33 18 -3 22 -10 22 -36 0 -17 5 -37 11 -43 6 -6
8 -16 4 -22 -4 -7 -22 8 -44 37 -21 26 -53 61 -72 77 -19 15 -33 32 -32 37 2
4 -2 8 -7 8 -20 0 -9 -28 25 -66 19 -21 35 -46 35 -57 0 -10 4 -15 10 -12 6 3
7 -1 4 -10 -4 -8 -1 -22 6 -30 14 -17 35 -21 25 -5 -3 6 -2 10 2 10 12 0 43
-54 43 -74 0 -9 -4 -16 -8 -16 -14 0 -51 48 -44 56 4 4 1 4 -5 0 -10 -5 -9
-15 4 -44 46 -105 75 -208 69 -251 -3 -24 -2 -49 3 -55 9 -11 25 -65 37 -126
3 -14 14 -41 25 -61 10 -20 16 -39 12 -43 -11 -11 -33 -6 -33 7 0 26 -33 122
-37 109 -3 -6 -9 -10 -14 -6 -12 7 -11 -3 2 -27 8 -16 7 -23 -6 -33 -11 -8
-14 -20 -10 -37 5 -21 11 -25 36 -21 24 4 29 1 29 -16 0 -32 21 -38 41 -11 19
25 27 105 9 94 -6 -4 -10 5 -10 20 0 14 4 24 9 20 5 -3 12 5 14 17 2 13 5 3 7
-22 l2 -45 10 35 c12 41 5 96 -16 119 -7 9 -21 50 -31 91 -19 86 -44 152 -55
145 -12 -7 -28 17 -34 50 -3 17 -3 24 0 17 3 -6 10 -10 15 -6 5 3 10 -5 10
-18 1 -17 3 -18 6 -5 2 9 10 17 18 17 12 0 20 -21 31 -75 2 -11 8 -40 13 -65
6 -25 12 -59 15 -77 5 -37 21 -69 33 -65 11 4 24 -133 17 -187 -2 -24 0 -59 7
-78 6 -19 9 -37 6 -40 -7 -7 -25 28 -31 62 -3 15 -8 30 -12 34 -4 3 -4 -7 0
-24 8 -38 23 -133 31 -205 4 -30 9 -58 11 -61 2 -4 -3 -24 -12 -44 -10 -24
-12 -40 -6 -44 6 -3 12 -22 15 -41 2 -19 5 -2 5 38 1 40 6 72 12 72 6 0 10 20
10 43 0 24 7 58 15 74 11 23 17 79 21 214 3 101 11 228 19 281 8 54 15 112 15
129 0 17 4 28 10 24 6 -3 10 3 10 14 0 38 -42 235 -55 262 -8 14 -11 29 -8 33
6 6 -10 50 -53 139 -21 45 -23 47 -26 20 -3 -25 -7 -21 -38 40 -41 81 -54 93
-45 43 9 -47 -11 -48 -24 -1 -5 19 -19 47 -30 61 -12 15 -21 32 -21 38 -1 6
-14 27 -30 46 -17 19 -30 39 -30 45 0 16 -135 155 -151 156 -8 0 -4 4 9 10 28
11 64 -5 56 -25 -6 -16 101 -134 112 -123 4 4 -18 32 -50 64 -32 32 -52 59
-46 63 6 4 -1 19 -19 37 -28 29 -51 65 -51 78 0 3 10 1 22 -6 18 -10 20 -9 15
5 -4 11 0 19 11 23 9 4 22 14 29 22 11 14 12 14 13 -1 0 -22 14 -30 36 -21 16
6 16 7 -1 19 -9 7 -14 17 -10 23 3 6 0 9 -7 6 -9 -4 -14 2 -14 14 0 15 4 17
13 10 7 -6 18 -7 27 -2 12 6 6 17 -29 56 -24 27 -64 62 -89 78 -25 16 -46 35
-46 42 0 21 -47 60 -61 52 -7 -5 -10 -4 -6 2 3 5 -8 24 -26 41 l-32 31 -209 6
c-116 3 -212 8 -215 10 -5 5 173 10 222 6 61 -5 6 47 -78 72 -168 51 -428 72
-559 45 -48 -9 -60 -9 -68 3 -8 11 -9 11 -5 -3 4 -12 -3 -20 -26 -29 -18 -7
-35 -14 -39 -17 -5 -2 -8 1 -8 7 0 6 6 11 13 11 6 0 21 8 32 16 19 15 18 16
-12 9 -26 -5 -33 -3 -33 9 0 12 6 15 25 10 15 -4 25 -2 25 4 0 6 14 13 30 17
45 10 25 28 -24 22 -22 -4 -79 -17 -126 -30 -71 -20 -85 -27 -90 -47 -5 -21
-7 -22 -20 -8 -10 11 -23 13 -47 8 -21 -5 -33 -4 -36 4 -2 6 -27 -10 -55 -36
-28 -27 -49 -48 -46 -48 9 0 -19 -25 -51 -46 -27 -18 -29 -18 -22 -1 4 11 3
16 -3 12 -6 -3 -10 -2 -10 3 0 5 32 41 70 80 39 39 70 65 70 59 0 -6 13 1 28
16 15 15 33 27 38 27 6 0 19 9 29 20 24 27 5 25 -53 -4 -48 -24 -154 -102
-160 -118 -2 -4 -9 -8 -15 -8 -6 0 -19 -7 -29 -17 -10 -9 -18 -12 -18 -6 0 16
47 59 109 100 31 20 58 40 61 44 6 8 96 39 115 39 8 0 15 4 15 9 0 8 75 31
102 31 10 0 9 -3 -2 -11 -12 -9 -12 -10 3 -5 10 3 33 6 50 7 27 0 29 2 12 9
-14 6 1 9 49 9 57 1 78 6 127 32 32 18 59 36 59 40 0 5 -12 15 -27 23 -37 20
-20 20 18 0 31 -16 51 -13 82 10 23 18 12 46 -19 46 -40 0 -27 18 19 26 l42 8
-35 7 -35 6 39 2 c38 1 39 2 20 16 -18 15 -17 16 16 10 19 -4 54 -13 78 -21
48 -16 92 -18 92 -6 0 5 -15 14 -32 20 -18 6 -85 28 -148 50 l-114 39 109 -3
c97 -2 119 -6 182 -33 40 -17 81 -31 93 -31 12 0 55 -11 96 -25 41 -14 78 -25
82 -25 17 1 -67 41 -118 56 -30 9 -89 29 -130 44 -99 38 -171 55 -310 75 -63
9 -126 21 -140 27 -41 17 -87 19 -240 7 -129 -10 -157 -16 -249 -50 -58 -21
-107 -39 -110 -39 -13 0 21 24 65 47 27 13 38 22 24 18 -14 -3 -38 -8 -55 -10
l-30 -5 30 11 c17 7 36 16 43 22 7 5 22 11 35 13 12 2 47 10 77 19 30 10 81
21 112 25 69 9 416 -5 473 -19 22 -6 70 -17 106 -26 80 -19 215 -64 292 -99
80 -36 96 -32 19 5 -34 17 -60 34 -57 39 13 22 130 -53 121 -77 -3 -8 -1 -11
4 -8 6 3 22 0 37 -8 72 -36 104 -50 108 -45 2 2 -14 15 -36 29 -54 31 -112 83
-84 74 27 -8 -47 69 -95 100 -61 39 -119 102 -107 114 8 8 2 10 -23 5 -32 -5
-33 -4 -17 9 23 19 22 30 -3 17 -14 -7 -20 -8 -20 0 0 6 -12 16 -27 23 -16 6
-30 14 -33 17 -15 16 -102 69 -145 89 -27 13 -57 29 -65 36 -8 7 -26 16 -40
20 -14 4 -76 31 -138 61 -62 30 -119 54 -127 54 -7 0 -16 4 -19 9 -4 5 -24 12
-47 16 -22 4 -38 9 -35 12 11 12 104 5 127 -9 13 -9 41 -19 63 -23 52 -9 265
-111 272 -130 6 -14 34 -22 34 -10 0 8 -53 54 -62 55 -4 0 -27 13 -51 28 -24
15 -91 43 -148 61 -57 18 -111 37 -120 41 -8 4 -41 13 -72 20 -32 6 -70 18
-85 26 -15 8 -43 14 -62 14 -26 0 -31 3 -20 10 10 6 11 10 3 10 -17 0 -16 12
1 35 12 16 16 17 30 6 21 -17 20 -28 -1 -34 -14 -4 -14 -5 3 -6 14 -1 24 6 27
19 10 38 108 16 141 -32 13 -18 18 -19 30 -8 20 16 11 30 -19 30 -12 0 -25 7
-29 15 -3 8 -12 15 -21 15 -8 0 -15 3 -15 8 0 7 -73 42 -89 42 -5 0 -14 -7
-21 -15 -10 -12 -16 -13 -26 -4 -17 14 -18 39 -1 40 6 0 3 4 -8 9 -19 8 -19 9
3 9 13 1 31 -3 41 -8 10 -6 58 -15 107 -21 66 -9 110 -22 169 -50 44 -21 81
-37 83 -35 8 8 -23 42 -35 38 -7 -3 -13 0 -13 6 0 21 -37 52 -91 78 -30 13
-56 28 -59 32 -10 15 -169 91 -190 91 -12 0 -29 4 -38 9 -9 4 -30 11 -45 15
-26 6 -27 5 -17 -15 14 -25 8 -33 -19 -24 -23 7 -29 25 -8 25 22 0 -16 20 -40
20 -12 0 -23 4 -25 10 -1 5 -32 14 -68 19 l-65 10 60 -5 c33 -2 74 -6 90 -8
17 -2 20 -1 8 1 -13 2 -23 9 -23 14 0 5 -7 9 -15 9 -8 0 -15 4 -15 9 0 5 -19
11 -42 15 -23 4 -49 12 -57 19 -9 8 -53 12 -130 11 -218 -2 -218 -2 -224 -23
-3 -12 -14 -19 -31 -20 -50 -3 -56 -4 -56 -15 0 -6 -4 -6 -8 2 -7 10 -14 10
-35 -1 -15 -8 -23 -17 -19 -21 4 -4 -6 -2 -21 5 -24 11 -32 10 -58 -5 -20 -12
-58 -19 -122 -22 -51 -2 -118 -9 -150 -16 -81 -15 -96 3 -20 25 32 9 74 19 93
23 19 4 42 9 50 11 20 4 112 5 130 1 8 -2 14 3 13 10 -2 7 9 12 30 13 17 0 41
2 52 4 11 2 44 5 73 6 37 2 52 6 52 16 0 11 -10 13 -42 9 -86 -11 -348 -17
-348 -9 0 12 130 35 191 35 27 -1 49 3 49 8 0 24 -155 18 -207 -8 -10 -5 -49
-17 -88 -26 -38 -10 -83 -24 -100 -31 -16 -7 -57 -21 -90 -30 -48 -14 -121
-44 -177 -73 -5 -2 -8 4 -8 13 0 21 47 68 61 59 10 -6 58 13 69 28 8 10 120
45 192 59 37 7 65 16 62 21 -7 10 -35 9 -111 -8z m44 -80 c-3 -3 -12 -4 -19
-1 -8 3 -5 6 6 6 11 1 17 -2 13 -5z m873 -14 c0 -12 -44 -24 -62 -17 -7 3 -1
6 15 6 15 1 27 6 27 11 0 6 5 10 10 10 6 0 10 -4 10 -10z m-128 -22 c-9 -9
-15 -9 -24 0 -9 9 -7 12 12 12 19 0 21 -3 12 -12z m-87 -13 c-50 -18 -55 -18
-31 0 11 8 31 15 45 15 22 -1 19 -3 -14 -15z m-315 1 c0 -3 -4 -8 -10 -11 -5
-3 -10 -1 -10 4 0 6 5 11 10 11 6 0 10 -2 10 -4z m472 -27 c29 -18 30 -20 8
-15 -14 3 -31 6 -37 6 -7 0 -13 7 -13 15 0 19 3 19 42 -6z m-622 -9 c0 -5 -16
-16 -36 -25 -19 -8 -48 -24 -64 -35 -15 -11 -35 -20 -43 -20 -9 0 -18 -9 -22
-20 -5 -17 -65 -69 -65 -57 0 2 15 24 34 48 23 29 59 56 108 81 79 40 88 43
88 28z m66 -15 c-27 -21 -52 -21 -34 0 7 8 22 14 33 14 20 0 20 0 1 -14z m888
-30 c-4 -8 -11 -12 -16 -9 -6 4 -5 10 3 15 19 12 19 11 13 -6z m-954 -4 c0 -5
-7 -12 -16 -15 -14 -5 -15 -4 -4 9 14 17 20 19 20 6z m-45 -31 c-3 -5 -16 -15
-28 -21 -22 -12 -22 -12 -3 10 19 21 43 30 31 11z m-77 -65 c-14 -13 -29 -21
-32 -17 -4 3 6 16 21 28 36 29 45 20 11 -11z m1062 6 c0 -3 -8 -11 -18 -17
-14 -9 -20 -8 -28 10 -9 20 -8 22 18 18 15 -2 28 -7 28 -11z m-1954 -12 c-8
-11 -25 -28 -38 -37 -22 -15 -23 -15 -8 3 29 41 43 55 52 55 5 0 3 -9 -6 -21z
m495 -26 c-13 -26 -81 -86 -88 -79 -6 6 81 96 93 96 2 0 0 -8 -5 -17z m223
-55 c-16 -18 -37 -38 -46 -46 -10 -7 -18 -18 -18 -23 0 -6 -13 -30 -29 -53
-34 -49 -82 -149 -75 -156 3 -2 10 2 15 10 8 11 8 8 3 -10 -3 -14 -13 -29 -20
-33 -20 -12 -17 -24 8 -30 20 -6 20 -7 5 -29 -43 -60 -49 -86 -45 -182 3 -71
8 -97 21 -110 20 -20 23 -92 5 -99 -13 -4 -9 -23 29 -152 3 -11 2 -17 -2 -13
-19 18 -77 216 -76 261 0 26 -4 47 -9 47 -5 0 -8 37 -6 90 2 56 0 87 -6 84 -6
-4 -5 4 2 16 7 13 13 37 15 54 4 45 59 182 92 227 15 22 37 55 49 75 24 41 89
104 106 104 6 0 -1 -14 -18 -32z m956 22 c0 -5 -4 -10 -10 -10 -5 0 -10 5 -10
10 0 6 5 10 10 10 6 0 10 -4 10 -10z m65 0 c-3 -5 -12 -10 -20 -10 -8 0 -17 5
-20 10 -4 6 5 10 20 10 15 0 24 -4 20 -10z m-805 -25 c-7 -8 -17 -15 -22 -15
-6 0 -5 7 2 15 7 8 17 15 22 15 6 0 5 -7 -2 -15z m1015 -25 c3 -5 1 -10 -4
-10 -6 0 -11 5 -11 10 0 6 2 10 4 10 3 0 8 -4 11 -10z m-202 -17 c-13 -2 -33
-2 -45 0 -13 2 -3 4 22 4 25 0 35 -2 23 -4z m114 1 c-3 -3 -12 -4 -19 -1 -8 3
-5 6 6 6 11 1 17 -2 13 -5z m-1175 -46 c-7 -7 -12 -8 -12 -2 0 14 12 26 19 19
2 -3 -1 -11 -7 -17z m-675 -32 c-9 -7 -17 -25 -17 -40 0 -28 -11 -34 -29 -12
-8 10 -4 20 20 45 17 18 34 30 37 26 4 -4 -1 -12 -11 -19z m101 -11 c-6 -14
-13 -23 -15 -21 -5 5 15 46 22 46 3 0 -1 -11 -7 -25z m724 -91 c-64 -129 -77
-182 -77 -319 1 -97 5 -136 25 -202 28 -97 44 -111 23 -20 -28 119 -6 348 43
452 22 48 28 38 10 -16 -23 -67 -46 -214 -46 -291 0 -70 35 -218 52 -218 4 0
8 -11 8 -24 0 -13 15 -53 33 -90 19 -36 31 -66 28 -66 -9 0 -91 97 -91 107 0
4 -12 21 -26 36 -14 15 -37 51 -50 80 l-25 52 6 -48 c2 -26 16 -82 31 -123 14
-42 23 -78 20 -82 -7 -7 -35 28 -36 45 0 7 -9 17 -20 23 -11 6 -17 16 -14 25
4 8 1 15 -6 15 -7 0 -10 7 -6 16 3 8 2 12 -3 9 -5 -3 -12 -1 -16 5 -3 5 -1 10
4 10 6 0 11 8 10 18 0 11 -2 12 -6 4 -9 -22 -33 7 -33 39 0 16 -7 32 -17 38
-15 8 -18 24 -17 108 0 62 7 120 18 158 10 33 21 74 26 90 14 54 61 162 79
181 9 11 20 28 24 38 4 10 10 16 13 13 4 -3 -8 -29 -25 -57 -17 -28 -31 -56
-31 -63 0 -7 -4 -17 -9 -22 -5 -6 -23 -55 -40 -110 -33 -103 -47 -185 -30
-185 9 0 12 13 10 42 -1 9 3 19 8 22 6 4 8 13 4 21 -6 18 15 75 28 75 5 0 9
-9 9 -20 0 -11 -4 -20 -9 -20 -10 0 -8 -106 2 -117 4 -3 7 11 7 33 1 21 5 58
9 81 5 28 5 43 -3 46 -16 5 84 229 127 285 24 31 15 -2 -21 -74z m1068 51 c-7
-8 -18 -15 -24 -15 -7 0 -29 -9 -51 -20 -21 -11 -40 -18 -43 -16 -2 3 9 11 25
19 15 9 42 22 58 31 38 20 51 20 35 1z m-1213 -62 c-66 -130 -103 -339 -93
-532 4 -82 3 -107 -4 -86 -5 17 -11 91 -12 165 -2 118 2 148 25 240 15 58 34
123 43 145 22 58 57 126 61 121 3 -2 -7 -26 -20 -53z m216 32 c-3 -9 -8 -14
-10 -11 -3 3 -2 9 2 15 9 16 15 13 8 -4z m332 -42 c-78 -98 -122 -158 -138
-189 -33 -65 -58 -181 -64 -302 -4 -89 -9 -119 -16 -106 -13 23 -2 201 18 282
20 82 79 209 115 247 16 17 48 51 71 78 59 66 70 59 14 -10z m-1255 40 c-1
-10 -39 -60 -40 -51 0 17 21 58 30 58 5 0 10 -3 10 -7z m-100 -65 c0 -25 -3
-29 -10 -18 -13 20 -13 50 0 50 6 0 10 -15 10 -32z m58 -12 c-7 -8 -15 -12
-17 -11 -5 6 10 25 20 25 5 0 4 -6 -3 -14z m47 -93 c-3 -25 -9 -42 -12 -39 -3
3 -2 31 2 63 5 32 10 50 13 39 2 -10 1 -38 -3 -63z m162 25 c-28 -79 -38 -101
-43 -95 -4 3 6 38 22 77 29 76 45 90 21 18z m-254 12 c-3 -11 -9 -18 -13 -15
-5 3 -6 14 -3 25 3 11 9 18 13 15 5 -3 6 -14 3 -25z m271 -42 c-12 -17 -15
-18 -10 -5 3 11 9 31 13 45 7 25 8 26 11 5 2 -13 -4 -33 -14 -45z m1989 15
c-7 -2 -19 -2 -25 0 -7 3 -2 5 12 5 14 0 19 -2 13 -5z m127 -18 c45 -17 30
-18 -45 -1 -48 11 -53 14 -25 14 19 0 51 -6 70 -13z m-2474 -73 c-11 -10 -14
3 -7 38 l6 35 3 -33 c2 -19 1 -36 -2 -40z m2721 25 c83 -28 103 -31 105 -20 2
12 8 11 29 -6 15 -11 29 -18 32 -14 4 3 22 -8 41 -25 19 -16 52 -35 73 -42 79
-26 131 -61 187 -128 20 -23 20 -23 0 -16 -10 4 -30 17 -44 29 -27 24 -102 65
-120 65 -6 0 -3 -11 6 -25 20 -30 15 -31 -36 -5 -22 11 -49 20 -60 20 -12 0
-18 5 -15 10 6 10 -7 14 -32 11 -7 -1 -87 17 -179 39 -148 36 -181 41 -278 40
-61 -1 -125 3 -141 8 -32 10 -36 10 -185 -9 -125 -15 -202 -35 -274 -71 -70
-35 -167 -124 -203 -186 -56 -95 -77 -230 -52 -327 10 -38 22 -98 33 -157 3
-16 2 -28 -3 -28 -19 0 -71 184 -71 252 0 33 -3 39 -11 28 -21 -32 4 66 38
146 71 168 188 270 378 329 61 19 118 35 126 35 8 0 21 5 29 11 20 13 -89 1
-150 -17 -46 -14 -77 -18 -68 -9 7 8 103 33 168 45 118 22 364 38 425 28 165
-26 249 -25 135 2 -28 7 -53 17 -57 23 -10 16 59 2 174 -36z m-2620 1 c-3 -8
-6 -5 -6 6 -1 11 2 17 5 13 3 -3 4 -12 1 -19z m1197 -89 c-9 -41 -20 -90 -24
-109 l-8 -35 -1 33 c-1 36 40 213 46 195 2 -6 -4 -44 -13 -84z m-957 59 c-3
-8 -6 -5 -6 6 -1 11 2 17 5 13 3 -3 4 -12 1 -19z m871 -5 c-53 -105 -52 -102
-53 -258 0 -146 1 -152 33 -238 35 -92 38 -131 4 -55 -50 113 -57 149 -57 283
0 130 18 226 48 261 13 14 31 19 25 7z m-1538 -72 c-18 -28 -35 -51 -39 -51
-12 0 -74 -98 -104 -164 -15 -32 -30 -56 -34 -53 -5 6 42 112 57 127 3 3 15
25 26 50 19 39 114 152 122 145 2 -2 -11 -26 -28 -54z m-148 27 c-7 -7 -12 -8
-12 -2 0 14 12 26 19 19 2 -3 -1 -11 -7 -17z m1124 -26 c-11 -10 -15 4 -8 28
l7 25 3 -23 c2 -13 1 -26 -2 -30z m1201 27 c-22 -13 -77 -29 -77 -23 0 6 63
32 80 33 11 0 10 -2 -3 -10z m-1833 -79 l6 -55 -15 40 c-8 22 -15 54 -15 70 1
47 16 10 24 -55z m2252 71 c-3 -5 -15 -7 -26 -4 -28 7 -25 13 6 13 14 0 23 -4
20 -9z m-2216 -49 c0 -10 5 -23 11 -29 7 -7 8 -20 3 -34 -7 -22 -8 -22 -15 11
-3 19 -10 43 -14 53 -4 10 -3 17 4 17 6 0 11 -8 11 -18z m989 -65 c-1 -41 -3
-47 -9 -27 -12 37 -12 92 0 85 6 -3 10 -30 9 -58z m-403 11 c-3 -13 -6 -45 -6
-73 0 -35 -3 -45 -10 -34 -11 19 -1 129 13 129 5 0 7 -10 3 -22z m-972 -22
c-3 -9 -10 -16 -15 -16 -6 0 -5 9 1 21 13 24 24 20 14 -5z m375 -54 c1 -7 -3
-10 -9 -7 -5 3 -10 18 -9 33 0 24 1 25 9 7 5 -11 9 -26 9 -33z m-242 1 c-9
-15 -22 -43 -31 -60 -8 -18 -26 -48 -40 -66 -15 -19 -26 -41 -26 -49 0 -8 -9
-23 -19 -32 -10 -10 -21 -26 -24 -36 -4 -17 -2 -18 15 -9 17 9 18 13 7 20 -8
5 -9 9 -4 9 40 0 30 -21 -46 -101 -45 -46 -98 -107 -119 -134 -20 -28 -45 -57
-55 -65 -23 -19 -65 -86 -65 -103 0 -15 -36 -48 -44 -40 -3 4 -6 2 -6 -4 0 -5
-11 -23 -25 -39 -14 -16 -25 -26 -25 -22 0 20 107 187 132 206 10 7 32 34 50
60 17 26 49 67 70 91 26 30 35 48 28 55 -10 10 -28 -3 -68 -49 -68 -77 -112
-117 -112 -102 0 9 5 17 10 17 6 0 8 10 5 23 -3 12 1 31 9 42 12 16 15 17 16
4 0 -8 -5 -20 -12 -27 -6 -6 -9 -14 -6 -18 8 -8 79 86 72 97 -2 5 7 30 21 56
15 29 25 40 25 29 0 -17 4 -16 30 9 16 16 32 26 35 24 3 -3 -11 -18 -31 -34
-37 -29 -70 -82 -59 -93 4 -4 15 3 25 15 9 12 24 23 31 25 20 4 49 33 64 62
26 50 50 91 60 102 6 6 35 47 65 92 52 79 78 103 47 45z m2146 -2 c-25 -25
-63 -45 -63 -31 0 10 58 50 73 50 4 0 0 -8 -10 -19z m-896 -23 c-3 -8 -6 -5
-6 6 -1 11 2 17 5 13 3 -3 4 -12 1 -19z m-1470 -75 c-13 -26 -27 -61 -31 -77
-4 -15 -10 -26 -13 -23 -3 4 10 47 28 98 20 54 35 83 37 71 2 -11 -8 -42 -21
-69z m2277 36 c-10 -4 -13 -8 -6 -8 6 -1 12 -6 12 -11 0 -6 -8 -5 -19 2 -18
11 -18 13 -3 24 9 7 21 10 26 6 5 -3 1 -9 -10 -13z m-1984 1 c0 -5 -5 -10 -11
-10 -5 0 -7 5 -4 10 3 6 8 10 11 10 2 0 4 -4 4 -10z m757 -22 c-3 -8 -6 -5 -6
6 -1 11 2 17 5 13 3 -3 4 -12 1 -19z m808 -54 c-19 -42 -35 -79 -35 -82 0 -3
-2 -3 -5 0 -11 11 51 158 66 158 5 0 -7 -34 -26 -76z m385 16 c0 -5 -4 -10
-10 -10 -5 0 -10 5 -10 10 0 6 5 10 10 10 6 0 10 -4 10 -10z m-73 -18 c-10
-11 -14 -26 -10 -40 3 -14 1 -22 -7 -22 -8 0 -9 -10 -5 -32 6 -31 6 -32 -8
-14 -14 19 -15 19 -28 -5 -21 -37 -50 -119 -59 -169 -7 -36 -8 -30 -5 35 2 44
11 100 20 125 16 45 89 140 108 140 6 0 3 -8 -6 -18z m993 8 c0 -5 -4 -10 -9
-10 -6 0 -13 5 -16 10 -3 6 1 10 9 10 9 0 16 -4 16 -10z m-1881 -55 l0 -20 -9
20 c-5 11 -9 27 -9 35 -1 13 0 13 9 0 5 -8 9 -24 9 -35z m911 31 c0 -3 -4 -8
-10 -11 -5 -3 -10 -1 -10 4 0 6 5 11 10 11 6 0 10 -2 10 -4z m-2428 -21 c0 -5
-5 -11 -11 -13 -6 -2 -11 4 -11 13 0 9 5 15 11 13 6 -2 11 -8 11 -13z m2462
-17 c-47 -54 -54 -61 -60 -56 -7 8 55 78 69 78 5 0 2 -10 -9 -22z m-1001 -18
c3 -11 1 -18 -4 -14 -5 3 -9 12 -9 20 0 20 7 17 13 -6z m823 -16 c-3 -9 -11
-48 -17 -87 -10 -69 -29 -114 -29 -70 0 52 32 173 46 173 3 0 3 -7 0 -16z
m-240 -50 c-4 -14 -9 -24 -12 -21 -3 2 -2 17 2 31 3 15 9 25 11 22 3 -3 2 -17
-1 -32z m-2176 -124 c0 -19 -37 -52 -45 -41 -3 6 1 14 9 17 9 3 16 12 16 20 0
8 5 14 10 14 6 0 10 -5 10 -10z m2850 -60 c0 -5 -5 -10 -11 -10 -5 0 -7 5 -4
10 3 6 8 10 11 10 2 0 4 -4 4 -10z m250 -70 c0 -8 -110 -70 -125 -70 -16 0 0
18 35 40 22 14 40 27 40 30 0 3 11 7 25 8 14 1 25 -3 25 -8z m-3033 -22 c-3
-8 -6 -5 -6 6 -1 11 2 17 5 13 3 -3 4 -12 1 -19z m3703 -58 c18 -6 2 -8 -52
-9 -42 -1 -85 -4 -95 -8 -10 -3 -14 -2 -10 2 4 5 29 12 55 16 62 8 73 8 102
-1z m-945 -50 c-10 -11 -21 -18 -23 -15 -6 6 31 44 37 39 2 -2 -4 -13 -14 -24z
m1341 5 c10 -8 14 -15 8 -15 -5 0 -19 7 -30 15 -10 8 -14 15 -8 15 5 0 19 -7
30 -15z m-3963 -30 c-3 -9 -8 -14 -10 -11 -3 3 -2 9 2 15 9 16 15 13 8 -4z
m3987 -5 c0 -10 61 -29 76 -23 8 3 14 0 14 -6 0 -6 7 -11 16 -11 8 0 13 -4 9
-10 -3 -5 -15 -6 -28 -1 -12 4 -28 6 -35 4 -7 -3 -23 2 -35 10 -12 8 -37 18
-55 21 -47 11 -49 25 -2 23 22 -1 40 -4 40 -7z m-962 -15 c-10 -8 -48 -25 -48
-21 0 12 33 36 41 30 6 -3 9 -7 7 -9z m-823 -65 c3 -5 1 -10 -4 -10 -6 0 -11
5 -11 10 0 6 2 10 4 10 3 0 8 -4 11 -10z m1860 -30 c3 -11 18 -29 32 -40 18
-14 21 -20 10 -20 -9 0 -24 12 -35 28 -30 43 -34 52 -23 52 5 0 12 -9 16 -20z
m-135 -72 c0 -4 -11 2 -25 14 -14 12 -25 26 -25 32 0 5 11 -1 25 -14 14 -13
25 -27 25 -32z m250 -8 c0 -5 -4 -10 -9 -10 -6 0 -13 5 -16 10 -3 6 1 10 9 10
9 0 16 -4 16 -10z m-230 -30 c6 -11 8 -20 6 -20 -3 0 -10 9 -16 20 -6 11 -8
20 -6 20 3 0 10 -9 16 -20z m275 0 c3 -5 2 -10 -4 -10 -5 0 -13 5 -16 10 -3 6
-2 10 4 10 5 0 13 -4 16 -10z m-67 -51 c21 -33 8 -32 -16 1 -12 16 -16 27 -9
25 7 -3 18 -15 25 -26z m-151 -92 c4 -7 0 -8 -11 -4 -10 4 -22 7 -27 7 -5 0
-9 4 -9 9 0 12 38 2 47 -12z m224 -45 c-13 -4 -41 22 -41 39 0 7 11 2 26 -12
14 -13 20 -25 15 -27z m-77 -241 c3 -4 -6 -6 -19 -3 -14 2 -25 6 -25 8 0 8 39
4 44 -5z m264 -389 c6 -18 -15 -14 -22 4 -4 10 -1 14 6 12 6 -2 14 -10 16 -16z
m132 -67 c0 -5 -5 -3 -10 5 -5 8 -10 20 -10 25 0 6 5 3 10 -5 5 -8 10 -19 10
-25z m67 -217 c-3 -7 -5 -2 -5 12 0 14 2 19 5 13 2 -7 2 -19 0 -25z m-30 -70
c-3 -8 -6 -5 -6 6 -1 11 2 17 5 13 3 -3 4 -12 1 -19z m-107 -368 c0 -5 -5 -10
-11 -10 -5 0 -7 5 -4 10 3 6 8 10 11 10 2 0 4 -4 4 -10z m160 -207 c0 -33 -17
-21 -22 17 -4 24 -2 27 9 19 7 -7 13 -22 13 -36z m-5562 -736 c15 4 15 3 2 -6
-22 -15 -30 -14 -29 7 0 9 3 12 5 5 3 -7 13 -9 22 -6z m-28 -62 c-7 -8 -10
-22 -6 -30 3 -9 0 -15 -9 -15 -20 0 -19 25 1 44 20 20 30 21 14 1z m-28 -59
c6 4 9 3 5 -2 -3 -5 1 -32 8 -59 7 -29 9 -55 4 -61 -5 -6 -6 -14 -3 -17 10
-10 13 -197 3 -203 -5 -3 -9 -17 -9 -31 0 -15 -3 -23 -7 -20 -9 10 -35 -59
-40 -110 -3 -24 -10 -43 -15 -43 -7 0 -7 -4 0 -13 6 -7 7 -18 2 -26 -4 -8 -7
-19 -5 -25 2 -6 9 -57 16 -113 7 -57 16 -103 21 -103 4 0 8 -16 8 -35 0 -19 4
-43 9 -53 6 -9 20 -38 32 -64 12 -27 26 -48 30 -48 4 0 9 -12 11 -27 2 -16 8
-27 16 -26 16 4 15 -5 -3 -23 -8 -9 -15 -11 -15 -6 0 5 -18 22 -40 37 -22 15
-40 31 -40 36 0 11 -62 103 -72 107 -5 2 -8 16 -8 31 0 15 -4 31 -10 37 -5 5
-10 24 -12 42 -1 17 -5 32 -9 32 -12 0 -23 85 -23 190 -1 270 32 550 65 550 5
0 13 8 16 18 4 9 16 26 27 37 19 19 21 19 24 2 2 -9 8 -14 14 -11z m203 -2
c14 -9 25 -23 25 -31 0 -8 4 -12 9 -9 13 8 42 -4 35 -15 -3 -5 3 -9 13 -9 14
0 15 -2 4 -9 -12 -7 -11 -12 1 -30 8 -11 18 -18 21 -14 4 3 7 2 8 -3 2 -31 10
-49 24 -57 9 -5 15 -18 13 -30 -1 -12 1 -28 6 -35 4 -7 10 -32 13 -54 2 -23
11 -54 19 -69 16 -32 17 -39 6 -39 -12 0 -46 73 -76 162 -23 69 -73 162 -108
200 -55 59 -59 72 -13 42z m115 -88 c0 -3 -4 -8 -10 -11 -5 -3 -10 -1 -10 4 0
6 5 11 10 11 6 0 10 -2 10 -4z m129 -646 c-11 -63 -10 -72 5 -89 15 -17 17
-32 11 -113 -5 -66 -3 -89 4 -78 8 11 11 3 11 -35 0 -27 3 -61 7 -74 4 -15 2
-22 -4 -18 -6 4 -13 24 -17 46 -3 21 -22 62 -42 92 -21 29 -40 68 -45 87 -9
42 14 201 38 255 16 36 17 36 30 17 12 -18 13 -32 2 -90z m-526 -277 c3 -5 -1
-14 -9 -21 -12 -11 -14 -9 -14 8 0 20 14 27 23 13z"/>
<path d="M5932 10430 c0 -25 3 -36 5 -25 4 14 10 4 19 -33 8 -30 12 -58 8 -63
-3 -5 0 -9 5 -9 6 0 11 10 11 23 0 41 -22 137 -30 132 -5 -3 -11 1 -13 7 -3 7
-5 -7 -5 -32z"/>
<path d="M7430 10620 c8 -5 40 -9 70 -9 40 0 49 3 35 9 -29 12 -124 12 -105 0z"/>
<path d="M3496 6862 c-4 -7 0 -19 8 -28 17 -17 19 -11 7 20 -5 14 -10 16 -15
8z"/>
<path d="M6488 11483 c7 -3 16 -2 19 1 4 3 -2 6 -13 5 -11 0 -14 -3 -6 -6z"/>
<path d="M7050 11446 c0 -5 126 -32 185 -40 34 -5 36 -4 15 5 -50 21 -200 47
-200 35z"/>
<path d="M7298 11393 c7 -3 16 -2 19 1 4 3 -2 6 -13 5 -11 0 -14 -3 -6 -6z"/>
<path d="M7245 11360 c3 -5 8 -10 11 -10 2 0 4 5 4 10 0 6 -5 10 -11 10 -5 0
-7 -4 -4 -10z"/>
<path d="M7270 11350 c0 -5 7 -10 16 -10 8 0 12 5 9 10 -3 6 -10 10 -16 10 -5
0 -9 -4 -9 -10z"/>
<path d="M5439 11333 c-13 -16 -12 -17 4 -4 9 7 17 15 17 17 0 8 -8 3 -21 -13z"/>
<path d="M7345 11331 c3 -5 22 -15 43 -22 20 -7 60 -24 87 -39 28 -14 66 -33
85 -40 19 -8 41 -20 48 -27 7 -7 22 -13 32 -13 10 0 21 -4 25 -10 3 -5 20 -19
38 -31 l32 -22 -35 37 c-35 37 -162 104 -289 152 -71 27 -74 28 -66 15z"/>
<path d="M5445 11296 c-20 -19 -36 -38 -34 -43 2 -4 23 11 47 35 50 50 41 57
-13 8z"/>
<path d="M7781 11123 c8 -9 39 -34 69 -56 30 -22 58 -45 62 -51 5 -8 8 -8 8 0
0 14 -127 124 -142 124 -6 0 -5 -7 3 -17z"/>
<path d="M7366 11065 c-6 -17 -3 -18 56 -33 30 -8 36 -7 31 4 -3 8 -15 14 -28
14 -13 0 -25 7 -29 15 -7 19 -22 19 -30 0z"/>
<path d="M7712 11062 c-9 -6 -5 -12 15 -20 24 -11 26 -10 11 1 -10 8 -15 17
-11 20 9 9 1 8 -15 -1z"/>
<path d="M5345 11029 c-4 -6 -5 -12 -2 -15 2 -3 7 2 10 11 7 17 1 20 -8 4z"/>
<path d="M7800 10991 c0 -10 30 -24 37 -17 3 2 -5 9 -16 16 -12 6 -21 7 -21 1z"/>
<path d="M8006 10972 c-3 -5 3 -17 14 -27 23 -21 26 -9 6 18 -8 10 -17 14 -20
9z"/>
<path d="M7886 10866 c6 -16 54 -39 63 -31 8 9 -37 45 -55 45 -7 0 -11 -6 -8
-14z"/>
<path d="M8161 10587 c2 -1 13 -9 24 -17 19 -14 19 -14 6 3 -7 9 -18 17 -24
17 -6 0 -8 -1 -6 -3z"/>
<path d="M8425 10460 c3 -5 16 -10 28 -10 18 0 19 2 7 10 -20 13 -43 13 -35 0z"/>
<path d="M4340 10450 c-8 -5 -10 -10 -5 -10 6 0 17 5 25 10 8 5 11 10 5 10 -5
0 -17 -5 -25 -10z"/>
<path d="M4265 10420 c-3 -5 -2 -10 4 -10 5 0 13 5 16 10 3 6 2 10 -4 10 -5 0
-13 -4 -16 -10z"/>
<path d="M8528 10423 c7 -3 16 -2 19 1 4 3 -2 6 -13 5 -11 0 -14 -3 -6 -6z"/>
<path d="M8520 10381 c0 -5 8 -11 18 -13 11 -3 19 0 19 8 0 8 -9 14 -19 14
-10 0 -18 -4 -18 -9z"/>
<path d="M8578 10383 c6 -2 12 -11 12 -19 0 -9 5 -12 10 -9 19 12 10 35 -12
34 -13 0 -17 -3 -10 -6z"/>
<path d="M8535 10280 c3 -5 16 -15 28 -21 22 -12 22 -12 3 10 -19 21 -43 30
-31 11z"/>
<path d="M4306 10245 c-3 -9 -6 -22 -5 -28 0 -7 5 -1 10 12 5 13 8 26 5 28 -2
2 -6 -3 -10 -12z"/>
<path d="M8405 10226 c11 -8 27 -16 35 -16 20 0 1 16 -30 25 -24 7 -24 7 -5
-9z"/>
<path d="M8560 10215 c33 -19 49 -19 24 0 -10 8 -26 14 -34 14 -9 0 -4 -6 10
-14z"/>
<path d="M8628 10223 c7 -3 16 -2 19 1 4 3 -2 6 -13 5 -11 0 -14 -3 -6 -6z"/>
<path d="M8098 10193 c7 -3 16 -2 19 1 4 3 -2 6 -13 5 -11 0 -14 -3 -6 -6z"/>
<path d="M8500 10190 c0 -13 18 -22 24 -11 3 5 -1 11 -9 15 -8 3 -15 1 -15 -4z"/>
<path d="M8712 10183 c6 -7 18 -13 28 -13 9 0 20 -3 24 -7 4 -4 28 -15 54 -25
47 -17 47 -17 22 2 -32 24 -144 62 -128 43z"/>
<path d="M7930 10175 c0 -3 8 -13 18 -23 24 -24 122 -73 122 -61 0 5 12 9 28
10 21 0 16 4 -28 21 -30 12 -66 29 -79 39 -22 17 -61 26 -61 14z"/>
<path d="M8540 10172 c0 -17 26 -42 48 -47 30 -5 28 -2 -13 29 -19 15 -35 23
-35 18z"/>
<path d="M8655 10171 c3 -6 23 -18 43 -27 20 -10 42 -19 47 -22 6 -3 3 2 -5
11 -18 19 -95 53 -85 38z"/>
<path d="M7874 10145 c-4 -8 -18 -15 -33 -15 -23 0 -100 -55 -90 -64 5 -4 187
-10 242 -8 20 1 37 6 37 10 0 13 -67 42 -98 43 -27 0 -27 0 -3 10 19 8 21 12
11 24 -16 19 -59 19 -66 0z m73 -71 c-3 -3 -12 -4 -19 -1 -8 3 -5 6 6 6 11 1
17 -2 13 -5z"/>
<path d="M8622 10097 c13 -13 73 -40 96 -44 8 -1 22 -9 31 -17 20 -18 31 -20
31 -7 0 13 -53 45 -72 44 -10 -1 -18 2 -18 7 0 8 -53 30 -72 30 -5 0 -3 -6 4
-13z"/>
<path d="M8760 10105 c0 -7 57 -35 72 -35 20 1 -32 40 -53 40 -10 0 -19 -2
-19 -5z"/>
<path d="M8198 10087 c12 -14 89 -38 175 -54 18 -3 26 -10 23 -18 -3 -8 8 -18
27 -25 18 -6 70 -27 116 -46 88 -35 108 -36 75 -5 -22 22 -191 98 -218 99 -5
0 -12 4 -15 9 -3 4 -40 16 -81 26 -41 10 -84 21 -95 24 -17 5 -18 4 -7 -10z"/>
<path d="M8105 10080 c-3 -5 -2 -10 4 -10 5 0 13 5 16 10 3 6 2 10 -4 10 -5 0
-13 -4 -16 -10z"/>
<path d="M4351 10069 c-13 -5 -22 -11 -20 -14 8 -7 49 7 49 16 0 5 -1 9 -2 8
-2 0 -14 -5 -27 -10z"/>
<path d="M8856 10071 c-7 -11 12 -25 34 -26 8 0 14 -6 13 -12 -2 -7 1 -13 7
-13 5 0 38 -13 72 -30 34 -16 64 -28 66 -25 3 3 3 6 1 8 -2 2 -35 24 -74 49
-76 50 -110 64 -119 49z"/>
<path d="M8185 10040 c3 -5 16 -10 28 -10 18 0 19 2 7 10 -20 13 -43 13 -35 0z"/>
<path d="M7470 9990 c0 -13 11 -13 30 0 12 8 11 10 -7 10 -13 0 -23 -4 -23
-10z"/>
<path d="M8660 9940 c-9 -6 -10 -10 -3 -10 6 0 15 5 18 10 8 12 4 12 -15 0z"/>
<path d="M8675 9920 c-4 -6 -5 -13 -4 -14 12 -11 138 -69 191 -90 35 -13 85
-33 111 -45 45 -21 80 -21 47 -1 -11 7 -10 9 7 7 12 0 19 -5 17 -9 -3 -4 2 -8
10 -8 25 0 19 20 -10 30 -14 6 -44 22 -67 38 -77 50 -116 67 -129 54 -9 -9 -7
-12 10 -12 12 0 22 -4 22 -9 0 -5 10 -11 22 -14 12 -4 19 -9 16 -12 -3 -4 -20
1 -37 9 -16 9 -37 16 -46 16 -10 0 -13 5 -9 12 4 7 3 8 -5 4 -6 -4 -30 2 -51
13 -22 11 -40 18 -40 16 0 -3 -11 2 -24 10 -17 11 -26 13 -31 5z"/>
<path d="M8395 9855 c11 -8 30 -23 42 -34 15 -13 30 -17 45 -13 l23 7 -22 3
c-12 2 -20 9 -17 16 3 7 -10 17 -29 24 -47 17 -67 15 -42 -3z"/>
<path d="M8630 9786 c30 -19 60 -39 65 -43 6 -4 40 -30 75 -57 36 -27 80 -63
98 -80 17 -16 32 -24 32 -17 0 9 6 11 18 6 35 -15 82 -23 82 -14 0 5 -21 19
-47 30 -75 34 -97 47 -101 59 -3 7 9 6 33 -4 21 -9 48 -16 60 -16 12 0 39 -7
60 -16 20 -8 34 -10 30 -5 -3 6 -1 11 4 11 6 0 11 7 11 15 0 8 5 15 10 15 6 0
10 -7 10 -15 0 -8 7 -15 15 -15 8 0 15 7 15 15 0 8 0 18 1 23 0 4 -20 8 -45 8
-25 1 -58 6 -73 11 -16 6 -55 18 -88 28 -33 9 -91 28 -128 41 -38 13 -80 24
-96 24 -15 0 -31 4 -36 9 -6 5 -21 12 -35 16 -14 4 0 -9 30 -29z"/>
<path d="M8875 9760 c3 -5 17 -10 31 -10 14 0 22 4 19 10 -3 6 -17 10 -31 10
-14 0 -22 -4 -19 -10z"/>
<path d="M9078 9623 c7 -3 16 -2 19 1 4 3 -2 6 -13 5 -11 0 -14 -3 -6 -6z"/>
<path d="M8780 9354 c0 -11 40 -47 46 -41 2 2 -7 14 -21 27 -14 13 -25 19 -25
14z"/>
<path d="M9081 9170 c6 -19 22 -45 35 -57 13 -12 24 -30 24 -41 0 -10 9 -37
20 -60 11 -22 20 -48 20 -57 0 -9 5 -13 10 -10 6 4 10 -6 10 -24 0 -21 -6 -32
-20 -36 -14 -4 -20 -15 -20 -36 0 -16 4 -29 10 -29 5 0 7 -7 4 -15 -4 -8 -1
-22 5 -29 7 -8 18 -47 25 -88 11 -55 14 -64 15 -35 1 53 21 46 21 -8 0 -25 5
-45 10 -45 19 0 10 65 -21 150 -17 47 -33 96 -35 110 -5 24 -5 24 10 6 9 -11
16 -26 16 -33 0 -7 5 -13 10 -13 16 0 11 42 -7 62 -13 15 -15 23 -6 37 9 14 2
35 -33 106 -24 49 -44 94 -44 100 0 6 -16 26 -35 45 l-35 34 11 -34z"/>
<path d="M9130 9191 c0 -6 4 -13 10 -16 6 -3 7 1 4 9 -7 18 -14 21 -14 7z"/>
<path d="M9165 9140 c3 -5 8 -10 11 -10 2 0 4 5 4 10 0 6 -5 10 -11 10 -5 0
-7 -4 -4 -10z"/>
<path d="M8820 9066 c0 -2 12 -12 28 -21 l27 -18 -19 21 c-17 20 -36 29 -36
18z"/>
<path d="M8960 9056 c0 -2 7 -9 15 -16 13 -11 14 -10 9 4 -5 14 -24 23 -24 12z"/>
<path d="M9108 8978 c-3 -7 3 -24 13 -37 11 -13 19 -30 19 -37 0 -8 4 -14 10
-14 10 0 2 25 -23 73 -9 18 -17 24 -19 15z"/>
<path d="M8900 8960 c0 -5 5 -10 11 -10 5 0 7 5 4 10 -3 6 -8 10 -11 10 -2 0
-4 -4 -4 -10z"/>
<path d="M8930 8854 c0 -8 5 -12 10 -9 6 3 10 10 10 16 0 5 -4 9 -10 9 -5 0
-10 -7 -10 -16z"/>
<path d="M8687 8829 c4 -13 8 -18 11 -10 2 7 -1 18 -6 23 -8 8 -9 4 -5 -13z"/>
<path d="M8782 8810 c0 -14 2 -19 5 -12 2 6 2 18 0 25 -3 6 -5 1 -5 -13z"/>
<path d="M8707 8793 c-6 -10 52 -77 60 -69 7 7 -29 68 -44 73 -6 2 -13 0 -16
-4z"/>
<path d="M8817 8744 c-8 -8 3 -34 14 -34 11 0 12 27 0 34 -4 3 -11 3 -14 0z"/>
<path d="M8760 8649 c0 -9 12 -29 26 -45 l26 -29 -16 30 c-8 17 -20 37 -25 45
-9 13 -11 13 -11 -1z"/>
<path d="M9231 8564 c0 -11 3 -14 6 -6 3 7 2 16 -1 19 -3 4 -6 -2 -5 -13z"/>
<path d="M8790 8180 c0 -21 17 -46 25 -38 4 4 0 17 -9 30 -10 14 -16 17 -16 8z"/>
<path d="M8834 8124 c-4 -22 -2 -40 5 -47 6 -6 11 -19 11 -30 0 -10 4 -16 9
-13 9 6 21 -16 21 -38 0 -21 -38 -16 -45 7 l-8 22 -4 -23 c-3 -15 2 -28 14
-37 13 -10 18 -27 19 -67 0 -29 4 -64 9 -77 6 -17 5 -23 -4 -20 -7 3 -25 33
-40 68 -28 63 -44 71 -34 18 3 -15 12 -27 20 -27 10 0 11 -5 4 -18 -9 -16 7
-105 24 -132 3 -6 2 -10 -3 -10 -10 0 -32 44 -32 65 0 8 -4 15 -9 15 -5 0 -14
14 -21 30 -7 17 -16 30 -21 30 -5 0 2 -25 16 -56 33 -74 33 -95 2 -66 -13 12
-27 19 -31 15 -4 -4 -11 -1 -15 6 -9 14 -31 -67 -31 -114 0 -16 -6 -25 -15
-25 -16 0 -21 -45 -6 -54 5 -4 8 -14 6 -24 -2 -9 -4 -28 -4 -41 -1 -28 -16
-19 -24 14 -4 16 -5 14 -6 -7 0 -14 -4 -28 -8 -31 -5 -2 -2 -2 5 -1 6 2 12 -5
12 -16 0 -11 -5 -20 -11 -20 -5 0 -7 5 -4 10 3 6 2 10 -3 10 -5 0 -24 -60 -41
-133 -24 -102 -29 -140 -22 -159 10 -27 4 -68 -9 -68 -5 0 -10 6 -13 13 -2 6
-2 -60 -1 -148 2 -88 3 -173 3 -188 1 -15 5 -35 10 -45 6 -12 4 -23 -6 -37
-15 -20 -15 -19 -8 3 5 16 2 22 -9 22 -14 0 -15 -16 -11 -118 3 -65 9 -131 14
-147 7 -29 8 -28 21 25 15 63 59 152 72 144 4 -3 8 -1 8 4 0 5 16 24 35 43 26
26 35 43 35 69 1 19 7 49 15 65 l13 30 1 -35 c1 -26 4 -31 11 -20 5 8 10 25
10 38 0 12 5 22 11 22 8 0 10 17 6 55 -6 55 0 70 20 57 12 -7 11 -66 -2 -119
-9 -39 6 -44 27 -10 14 21 45 144 40 160 -1 4 -4 40 -7 79 -3 40 -10 75 -16
79 -6 4 -18 29 -25 55 l-14 49 4 -42 c2 -24 1 -45 -4 -48 -7 -4 -20 89 -20
148 0 24 3 28 12 19 17 -17 26 -15 31 6 3 9 5 -8 6 -38 3 -84 14 -135 31 -136
8 -1 19 -2 24 -3 6 0 5 -6 -2 -13 -7 -7 -12 -37 -12 -68 0 -39 3 -51 10 -40 5
8 10 31 10 50 0 51 11 82 25 76 16 -6 28 45 14 59 -5 5 -9 1 -9 -12 0 -24 -24
-48 -40 -38 -14 9 -13 32 3 38 9 3 9 7 1 18 -7 8 -14 41 -18 74 -8 90 -16 114
-32 108 -9 -3 -14 2 -14 15 0 11 5 22 12 24 6 2 11 21 10 41 -2 43 13 41 23
-3 4 -20 11 -27 21 -23 11 4 14 -4 14 -33 0 -51 11 -36 21 28 5 29 13 54 19
56 5 2 10 19 10 37 0 19 5 46 10 60 7 18 7 33 -1 48 -9 16 -9 22 0 25 15 5 14
32 -1 32 -10 0 -10 2 -1 8 8 5 8 17 -2 47 -8 21 -16 60 -19 85 -3 25 -12 64
-20 87 -8 23 -12 58 -9 79 4 30 -1 50 -20 82 -13 24 -28 44 -33 45 -5 1 -7 10
-6 20 6 34 -7 16 -14 -19z m6 -588 c0 -3 -4 -8 -10 -11 -5 -3 -10 -1 -10 4 0
6 5 11 10 11 6 0 10 -2 10 -4z m37 -18 c-3 -8 -6 -5 -6 6 -1 11 2 17 5 13 3
-3 4 -12 1 -19z m-90 -135 c-3 -10 -5 -4 -5 12 0 17 2 24 5 18 2 -7 2 -21 0
-30z m-147 -3 c4 -3 11 -29 15 -59 9 -68 -9 -61 -24 10 -12 54 -14 96 -4 69 3
-8 9 -17 13 -20z m-20 -180 c0 -11 -2 -20 -4 -20 -2 0 -6 9 -9 20 -3 11 -1 20
4 20 5 0 9 -9 9 -20z m83 -7 c8 -13 20 -78 13 -72 -13 12 -36 79 -27 79 6 0
12 -3 14 -7z m47 -111 c0 -7 -4 -10 -10 -7 -5 3 -10 16 -10 28 0 18 2 19 10 7
5 -8 10 -21 10 -28z m-63 -59 c-3 -10 -5 -4 -5 12 0 17 2 24 5 18 2 -7 2 -21
0 -30z m120 -35 c-3 -7 -5 -2 -5 12 0 14 2 19 5 13 2 -7 2 -19 0 -25z m-164
-163 c4 -8 2 -17 -3 -20 -6 -4 -10 3 -10 14 0 25 6 27 13 6z"/>
<path d="M8930 8096 c0 -9 7 -16 16 -16 9 0 14 5 12 12 -6 18 -28 21 -28 4z"/>
<path d="M9024 7859 c-3 -6 2 -19 11 -29 16 -17 16 -21 1 -42 -18 -25 -22 -88
-5 -88 5 0 7 -4 4 -10 -3 -5 -1 -10 4 -10 6 0 11 9 11 19 0 11 5 23 10 26 11
7 13 57 4 103 -6 32 -29 49 -40 31z"/>
<path d="M8980 7815 c0 -8 4 -15 10 -15 5 0 7 7 4 15 -4 8 -8 15 -10 15 -2 0
-4 -7 -4 -15z"/>
<path d="M5197 7687 c-5 -14 -97 -37 -150 -37 -20 0 -45 -14 -83 -46 -30 -26
-52 -49 -49 -52 10 -11 -60 -53 -81 -48 -22 6 -51 -16 -158 -116 -61 -58 -60
-76 2 -38 17 11 32 16 32 10 0 -5 16 -2 35 6 30 12 34 12 29 -1 -3 -8 -15 -17
-26 -21 -11 -3 -29 -15 -39 -25 -10 -10 -25 -19 -31 -19 -9 0 -8 3 2 10 8 5
11 12 8 15 -4 4 -17 0 -30 -9 -12 -9 -32 -16 -45 -16 -22 0 -40 -16 -29 -27 3
-4 17 -1 31 5 20 9 25 9 25 -2 0 -8 -7 -16 -15 -20 -8 -3 -15 -12 -15 -21 0
-8 -4 -15 -9 -15 -5 0 -11 -9 -14 -20 -3 -11 -12 -20 -21 -20 -9 0 -16 -7 -16
-16 0 -11 6 -14 20 -10 57 16 65 18 50 7 -12 -9 -13 -12 -1 -20 9 -6 10 -11 2
-15 -6 -4 -11 -12 -11 -17 0 -6 5 -7 10 -4 6 4 10 -5 10 -20 0 -15 -4 -24 -10
-20 -6 3 -13 -2 -17 -12 -4 -10 -13 -24 -21 -32 -12 -12 -15 -12 -23 0 -5 9
-9 -18 -9 -73 0 -49 3 -88 7 -88 3 0 14 7 24 16 16 14 18 14 28 -4 8 -15 7
-23 -5 -33 -14 -12 -14 -14 3 -20 16 -7 16 -8 1 -8 -12 -1 -18 -9 -18 -26 0
-14 5 -25 10 -25 6 0 10 -13 10 -29 0 -16 4 -31 9 -33 5 -1 11 -16 13 -33 4
-35 22 -52 63 -57 17 -2 29 -8 28 -15 -2 -7 5 -13 15 -13 11 0 24 -11 30 -25
8 -16 23 -28 42 -31 16 -4 27 -10 24 -15 -3 -5 4 -9 15 -9 13 0 21 -7 21 -16
0 -13 3 -14 14 -5 7 6 20 9 28 6 8 -3 37 -7 64 -9 27 -1 59 -8 71 -14 14 -8
38 -10 62 -6 22 4 88 3 146 -1 93 -6 109 -10 130 -31 13 -13 29 -24 35 -24 6
0 8 -4 5 -10 -3 -5 -1 -10 4 -10 6 0 11 4 11 10 0 16 25 1 35 -23 10 -21 16
-22 148 -25 108 -2 137 -5 137 -16 0 -9 15 -15 44 -17 37 -3 43 -1 41 14 -3
14 3 17 34 17 31 0 38 4 37 17 -1 12 7 19 24 21 14 2 30 8 37 14 7 5 17 7 23
3 5 -3 14 4 18 16 6 15 11 18 16 11 10 -16 26 -15 26 1 0 6 17 21 38 32 20 11
41 30 47 43 5 12 15 22 22 22 7 0 13 5 13 11 0 6 9 9 20 6 23 -6 29 1 32 36 1
14 5 24 9 21 9 -5 29 52 22 60 -4 3 -1 6 6 6 7 0 9 5 6 10 -3 6 1 10 10 10 9
0 14 4 10 9 -3 5 -1 12 5 16 5 3 10 23 10 43 0 36 25 72 51 72 5 0 7 5 4 10
-3 6 2 10 12 10 14 0 15 2 4 9 -11 7 -9 11 8 20 28 15 27 30 -1 25 -13 -2 -16
-1 -8 2 29 13 49 36 43 51 -4 9 1 20 11 25 10 6 26 29 37 52 10 22 19 37 19
31 1 -5 5 0 10 12 5 12 7 32 4 45 -15 63 -22 103 -19 109 2 3 -9 3 -26 1 -27
-4 -34 3 -30 30 0 4 -17 13 -39 19 -22 7 -40 16 -40 21 0 4 -15 8 -32 8 -21 0
-28 3 -20 8 9 6 5 12 -15 23 -36 18 -54 35 -46 43 4 3 -8 6 -25 6 -22 0 -32 5
-32 15 0 8 -7 15 -15 15 -9 0 -15 9 -15 25 0 21 -5 25 -27 25 -22 0 -25 2 -13
10 11 7 11 10 2 10 -13 0 -29 11 -62 44 -17 17 -22 17 -36 5 -13 -11 -18 -11
-21 -1 -3 6 -18 12 -34 12 -19 0 -29 5 -29 14 0 13 -4 13 -27 0 -16 -7 -36
-14 -45 -14 -21 0 -34 20 -19 30 9 5 9 9 -1 17 -24 20 -73 24 -121 9 -26 -8
-45 -11 -43 -7 13 20 -49 55 -126 71 -38 7 -58 16 -58 26 0 20 -37 18 -44 -3
-5 -12 -9 -14 -14 -6 -5 8 -21 9 -52 3 -25 -5 -49 -5 -54 0 -5 5 -31 6 -58 3
-34 -4 -52 -2 -58 6 -5 10 -9 9 -13 -2z m353 -677 c0 -5 -4 -10 -9 -10 -6 0
-13 5 -16 10 -3 6 1 10 9 10 9 0 16 -4 16 -10z m176 -102 c-2 -14 2 -35 10
-46 12 -18 11 -20 -16 -26 -17 -3 -32 -5 -35 -5 -3 0 -13 -7 -21 -16 -18 -17
-34 -20 -34 -4 0 16 26 39 35 31 5 -4 6 1 2 10 -3 10 0 19 10 22 12 5 13 9 3
22 -11 12 -10 17 8 30 13 9 22 27 23 42 l1 27 9 -30 c5 -16 7 -42 5 -57z"/>
<path d="M9070 7667 c0 -23 4 -36 10 -32 13 8 13 35 0 55 -7 11 -10 5 -10 -23z"/>
<path d="M9030 7640 c0 -11 7 -20 15 -20 17 0 18 2 9 24 -9 23 -24 20 -24 -4z"/>
<path d="M9021 7584 c0 -11 3 -14 6 -6 3 7 2 16 -1 19 -3 4 -6 -2 -5 -13z"/>
<path d="M9050 7576 c0 -8 5 -18 10 -21 6 -3 10 1 10 9 0 8 -4 18 -10 21 -5 3
-10 -1 -10 -9z"/>
<path d="M9040 7518 c0 -9 5 -20 10 -23 13 -8 13 5 0 25 -8 13 -10 13 -10 -2z"/>
<path d="M9080 7493 c0 -10 5 -25 10 -33 8 -12 10 -9 10 12 0 15 -4 30 -10 33
-5 3 -10 -2 -10 -12z"/>
<path d="M8916 7308 c4 -29 11 -54 15 -56 5 -2 10 -13 10 -25 1 -17 2 -18 6
-4 2 9 9 17 14 17 5 0 9 7 9 15 0 10 -7 15 -17 13 -15 -2 -19 6 -21 45 -2 26
-8 47 -13 47 -6 0 -7 -20 -3 -52z"/>
<path d="M7408 7297 c-14 -8 -46 -17 -70 -20 -23 -3 -45 -6 -47 -6 -2 -1 -1
-7 2 -15 3 -8 0 -17 -8 -20 -8 -3 -15 -1 -17 3 -4 11 -68 1 -68 -10 0 -5 10
-9 23 -9 21 -1 21 -1 3 -15 -10 -8 -23 -12 -27 -9 -5 3 -9 -4 -9 -15 0 -12 -7
-21 -16 -21 -8 0 -12 -4 -9 -10 5 -9 -23 -15 -47 -11 -5 0 -8 -6 -8 -15 0 -8
-4 -12 -10 -9 -5 3 -10 1 -10 -5 0 -6 -4 -8 -10 -5 -5 3 -10 -1 -10 -9 0 -9
-8 -16 -17 -17 -12 0 -13 -2 -5 -6 9 -4 5 -15 -14 -40 -19 -25 -29 -51 -31
-87 -3 -28 -10 -64 -17 -81 -7 -17 -11 -55 -8 -87 4 -53 6 -58 28 -58 15 0 24
6 24 15 0 8 4 15 9 15 6 0 7 -24 4 -55 -6 -57 -2 -62 45 -56 6 1 12 -4 12 -11
0 -8 3 -9 10 -2 20 20 76 4 94 -27 13 -22 32 -33 86 -50 39 -11 73 -25 76 -31
3 -5 13 1 22 13 14 20 16 21 28 4 11 -15 13 -14 12 14 -1 29 -3 31 -40 31 -36
0 -38 1 -23 16 9 10 24 14 38 10 12 -3 61 -8 108 -12 104 -7 138 6 169 67 12
23 32 44 47 50 22 8 30 6 55 -18 15 -14 28 -35 28 -44 0 -10 9 -21 20 -24 11
-3 20 -10 20 -15 0 -5 21 -12 48 -16 26 -3 59 -13 73 -20 31 -15 39 -10 39 25
l0 25 29 -28 c16 -16 34 -25 40 -22 6 4 11 2 11 -3 0 -6 5 -11 11 -11 6 0 22
-9 36 -20 28 -22 43 -18 43 11 0 28 -29 81 -40 74 -11 -7 -22 16 -24 48 -1 17
-7 21 -26 19 -19 -2 -21 0 -11 7 12 7 9 15 -15 38 -16 16 -37 32 -46 36 -10 3
-18 11 -18 17 0 6 -5 8 -12 4 -7 -5 -9 -2 -5 8 3 10 -3 20 -18 28 -13 7 -26
19 -29 27 -3 8 -1 11 4 8 17 -11 11 10 -10 33 -28 30 -26 44 6 32 37 -14 38
-13 14 20 -12 17 -27 30 -34 30 -6 0 -34 23 -61 50 -40 40 -47 53 -36 60 12 7
12 11 2 24 -9 11 -10 16 -2 16 6 0 11 -4 11 -9 0 -5 10 -12 23 -16 l22 -8 -22
-4 c-13 -2 -23 -6 -23 -7 0 -2 20 -24 45 -48 44 -45 64 -43 25 2 -23 27 -25
36 -7 43 26 11 -73 67 -105 59 -4 -1 -6 10 -5 24 1 17 -5 30 -17 38 -11 6 -29
19 -40 29 -11 9 -33 17 -48 17 -16 0 -27 4 -23 9 8 14 -27 31 -72 35 -21 2
-63 7 -93 11 -39 4 -63 2 -82 -8z m162 -487 c0 -5 -4 -10 -10 -10 -5 0 -10 5
-10 10 0 6 5 10 10 10 6 0 10 -4 10 -10z m-245 -227 c18 -14 18 -15 2 -9 -10
3 -25 6 -33 6 -8 0 -14 5 -14 10 0 15 22 12 45 -7z"/>
<path d="M4552 7240 c-10 -27 2 -40 20 -22 7 7 7 16 0 29 -10 17 -11 16 -20
-7z"/>
<path d="M3358 7193 c7 -3 16 -2 19 1 4 3 -2 6 -13 5 -11 0 -14 -3 -6 -6z"/>
<path d="M3260 7145 c-14 -8 -20 -14 -14 -15 5 0 19 7 30 15 24 18 16 19 -16
0z"/>
<path d="M4568 7113 c7 -3 16 -2 19 1 4 3 -2 6 -13 5 -11 0 -14 -3 -6 -6z"/>
<path d="M3423 7094 c-15 -16 -16 -24 -4 -24 8 0 24 30 19 35 -2 2 -9 -3 -15
-11z"/>
<path d="M4532 6925 c0 -16 2 -22 5 -12 2 9 2 23 0 30 -3 6 -5 -1 -5 -18z"/>
<path d="M6321 6774 c0 -11 3 -14 6 -6 3 7 2 16 -1 19 -3 4 -6 -2 -5 -13z"/>
<path d="M8531 6754 c0 -11 3 -14 6 -6 3 7 2 16 -1 19 -3 4 -6 -2 -5 -13z"/>
<path d="M8740 6719 c0 -5 5 -7 10 -4 6 3 10 8 10 11 0 2 -4 4 -10 4 -5 0 -10
-5 -10 -11z"/>
<path d="M7470 6520 c0 -5 5 -10 10 -10 6 0 10 5 10 10 0 6 -4 10 -10 10 -5 0
-10 -4 -10 -10z"/>
<path d="M7250 6510 c0 -5 5 -10 11 -10 5 0 7 5 4 10 -3 6 -8 10 -11 10 -2 0
-4 -4 -4 -10z"/>
<path d="M3136 6497 c3 -10 9 -15 12 -12 3 3 0 11 -7 18 -10 9 -11 8 -5 -6z"/>
<path d="M8733 6475 c-36 -15 -45 -36 -13 -28 11 3 20 0 20 -6 0 -6 7 -11 15
-11 18 0 19 -18 5 -91 -6 -30 -13 -76 -16 -104 -3 -27 -8 -53 -10 -57 -3 -4 2
-5 10 -2 11 4 7 -19 -19 -96 -19 -56 -35 -110 -35 -121 0 -36 15 -19 27 31 7
28 18 61 25 74 53 99 79 162 93 229 17 77 38 131 55 142 18 11 -3 35 -38 45
-49 13 -80 12 -119 -5z"/>
<path d="M7330 6451 c0 -12 28 -22 35 -12 3 5 -2 12 -11 15 -21 8 -24 8 -24
-3z"/>
<path d="M8520 6378 c0 -19 2 -20 10 -8 13 19 13 30 0 30 -5 0 -10 -10 -10
-22z"/>
<path d="M5600 6320 c0 -6 16 -8 43 -4 58 9 59 14 4 14 -26 0 -47 -5 -47 -10z"/>
<path d="M5866 6315 c4 -8 14 -15 23 -15 13 0 13 2 2 9 -11 7 -11 9 0 14 8 3
5 6 -8 6 -16 1 -21 -3 -17 -14z"/>
<path d="M5878 6283 c7 -3 16 -2 19 1 4 3 -2 6 -13 5 -11 0 -14 -3 -6 -6z"/>
<path d="M5740 5845 c0 -11 -5 -15 -15 -11 -8 3 -15 1 -15 -4 0 -5 -16 -12
-36 -16 -22 -4 -31 -10 -24 -14 8 -5 2 -10 -16 -14 -18 -5 -30 -3 -32 3 -6 19
-20 3 -47 -54 -14 -30 -30 -55 -35 -55 -5 0 -27 -17 -48 -38 -21 -21 -44 -36
-50 -34 -7 2 -12 -5 -12 -15 0 -10 -7 -27 -15 -37 -8 -11 -15 -28 -15 -37 0
-10 -7 -22 -16 -27 -9 -5 -18 -24 -19 -41 -2 -20 -11 -39 -25 -48 -12 -8 -19
-21 -16 -28 11 -29 -13 -80 -44 -93 -16 -8 -30 -20 -30 -28 0 -8 -7 -14 -15
-14 -9 0 -15 -9 -15 -24 0 -22 -66 -103 -81 -99 -4 1 -10 -17 -13 -41 -7 -48
-26 -70 -68 -80 -21 -5 -28 -12 -28 -31 0 -14 -4 -25 -9 -25 -6 0 -8 -9 -6
-19 4 -21 -19 -36 -37 -24 -7 4 -8 1 -3 -6 4 -7 -1 -20 -11 -31 -34 -34 -43
-48 -43 -66 -1 -51 -4 -54 -41 -54 l-36 0 6 -55 c3 -30 3 -61 -2 -68 -4 -6 -8
-25 -8 -40 0 -16 -4 -26 -9 -23 -5 4 -7 -3 -4 -14 3 -11 10 -20 15 -20 5 0 6
-5 3 -10 -5 -8 -11 -8 -20 0 -10 9 -16 6 -25 -10 -6 -11 -9 -24 -6 -29 3 -5
-1 -26 -8 -47 l-15 -39 -1 45 -2 45 -9 -45 c-7 -34 -5 -48 6 -59 11 -12 17
-12 29 -2 9 8 13 17 10 22 -3 5 -2 25 2 46 6 33 8 35 15 15 5 -12 7 -43 6 -69
l-2 -48 -40 4 c-24 2 -47 12 -58 24 -17 20 -17 22 -1 34 14 11 15 13 2 18 -8
3 -27 1 -42 -5 -37 -13 -41 -13 -26 5 7 8 20 15 30 15 15 0 37 29 28 35 -15 9
-79 22 -82 16 -3 -4 -7 -32 -9 -63 -3 -31 -10 -65 -16 -75 -19 -36 -7 -58 32
-61 35 -3 45 -11 31 -25 -3 -3 -14 -1 -24 5 -20 13 -55 3 -45 -12 3 -5 20 -10
37 -10 23 0 29 -4 24 -15 -3 -8 -1 -15 4 -15 6 0 10 -7 10 -15 0 -9 -6 -15
-12 -14 -31 4 -48 -2 -48 -16 0 -8 7 -15 15 -15 8 0 15 -5 15 -11 0 -5 -5 -7
-11 -3 -7 4 -9 0 -5 -13 4 -12 1 -25 -9 -33 -8 -7 -12 -16 -9 -21 3 -5 0 -9
-5 -9 -6 0 -11 5 -11 10 0 6 -9 19 -19 29 -24 24 -59 17 -67 -13 -3 -13 -18
-30 -35 -40 -27 -16 -29 -20 -22 -59 3 -23 13 -47 21 -53 8 -6 12 -16 8 -22
-8 -14 -36 -4 -36 12 0 7 -9 22 -20 34 -11 12 -20 28 -20 37 0 8 -6 15 -12 16
-7 0 -3 4 8 9 19 8 22 16 21 86 0 77 -12 117 -35 122 -9 1 -11 -11 -8 -43 4
-49 15 -72 18 -39 1 10 4 -10 7 -46 3 -36 5 -66 4 -68 -1 -2 -12 4 -26 13 -22
14 -26 14 -40 0 -15 -14 -17 -12 -27 25 -8 29 -8 46 0 61 7 11 9 27 6 35 -3 8
1 14 9 14 8 0 15 5 15 10 0 7 -6 7 -19 0 -28 -15 -51 -12 -51 5 0 18 -12 19
-28 3 -9 -9 -12 -3 -12 30 0 33 -3 40 -15 36 -10 -4 -15 0 -15 16 0 13 -4 19
-11 14 -8 -5 -9 6 -5 37 7 43 7 44 -11 23 -10 -12 -33 -29 -51 -38 -29 -15
-40 -15 -116 -2 -117 20 -141 12 -236 -85 -112 -114 -146 -135 -275 -163 -61
-13 -153 -39 -205 -57 -88 -29 -105 -32 -232 -33 -122 -1 -139 -3 -160 -22
-73 -64 -185 -110 -368 -151 -147 -33 -221 -57 -339 -114 -136 -66 -197 -90
-281 -109 -147 -33 -253 -80 -345 -155 -63 -51 -114 -81 -168 -99 -10 -3 -89
-13 -175 -21 -87 -8 -186 -24 -222 -36 -88 -27 -193 -101 -260 -182 -48 -58
-262 -231 -334 -269 -25 -13 -166 -104 -181 -115 -5 -5 -32 -22 -58 -38 -27
-17 -72 -48 -100 -71 l-52 -40 -3 -1277 -2 -1277 6075 0 6075 0 0 129 c0 127
-25 297 -75 507 -9 38 -21 89 -27 114 -68 289 -278 871 -393 1095 -133 255
-358 532 -545 668 -113 83 -122 89 -276 169 -73 37 -182 101 -242 142 -67 45
-150 89 -215 115 l-105 42 -38 85 c-21 47 -48 95 -60 107 -12 12 -62 41 -111
65 -48 24 -97 49 -108 54 -148 81 -177 90 -428 133 -160 28 -207 45 -312 120
-173 123 -231 142 -500 165 -109 9 -157 19 -235 50 -28 11 -85 27 -128 36 -42
8 -84 17 -93 20 -9 2 -37 31 -62 63 -47 59 -76 75 -173 95 -29 7 -32 5 -48
-37 -9 -25 -26 -53 -36 -62 -11 -10 -20 -24 -20 -32 0 -22 -40 -93 -55 -100
-8 -3 -15 -14 -15 -24 0 -10 -4 -19 -8 -19 -9 0 -102 -86 -102 -95 0 -3 -34
-40 -75 -82 -41 -42 -75 -78 -75 -80 0 -8 -41 -43 -50 -43 -5 0 -10 -4 -10
-10 0 -5 -7 -10 -15 -10 -8 0 -15 -5 -15 -11 0 -9 -4 -9 -13 0 -11 8 -18 6
-32 -9 -18 -20 -17 -20 9 -20 25 0 26 -2 21 -32 -3 -18 -17 -136 -31 -263 -29
-264 -50 -374 -98 -520 -44 -130 -115 -277 -172 -352 -13 -17 -24 -34 -24 -38
0 -3 -4 -11 -10 -18 -5 -7 -30 -39 -54 -72 -45 -61 -221 -248 -395 -420 -28
-27 -51 -53 -51 -57 0 -5 -5 -8 -10 -8 -6 0 -29 -17 -51 -37 -23 -21 -47 -40
-56 -43 -8 -3 -15 -10 -15 -15 -2 -25 -128 -78 -128 -54 0 13 -51 8 -88 -8
-18 -8 -40 -12 -48 -9 -8 3 -14 1 -14 -4 0 -6 -12 -10 -27 -9 -24 0 -25 1 -8
8 19 8 19 8 -3 15 -13 4 -35 5 -48 2 -29 -8 -53 2 -34 14 7 4 0 12 -19 20 -17
7 -31 16 -31 20 0 4 -13 13 -30 20 -16 7 -30 18 -30 25 0 8 -7 20 -15 29 -9 8
-17 30 -18 48 -1 22 -12 44 -34 66 -18 18 -33 37 -33 42 0 6 -3 9 -7 8 -18 -5
-73 22 -73 36 0 9 -7 16 -15 16 -19 0 -19 16 0 24 15 5 42 59 66 129 7 20 18
37 24 37 7 0 7 3 -1 8 -11 7 -54 92 -54 106 0 5 -9 17 -21 27 -11 9 -21 28
-23 41 -1 14 -12 34 -24 46 -23 23 -29 75 -12 102 5 9 5 19 -1 27 -7 8 -7 18
0 32 9 15 7 23 -5 36 -15 15 -15 18 5 39 22 24 25 54 6 68 -6 4 -1 8 10 9 26
2 34 3 68 13 17 5 32 4 40 -3 10 -8 19 -6 35 9 22 21 37 27 27 11 -3 -6 22 -8
62 -6 49 4 72 10 81 22 9 13 15 14 24 5 18 -18 35 -14 42 10 6 22 7 22 24 -7
l17 -30 3 33 c2 17 7 32 12 32 5 0 6 -7 3 -17 -4 -10 -2 -14 4 -10 6 4 14 -1
18 -11 7 -16 8 -15 15 3 7 17 9 17 9 3 1 -29 31 -22 31 7 0 16 6 25 15 25 18
0 20 -36 3 -43 -7 -3 -1 -6 14 -6 27 -1 47 14 27 21 -6 2 -9 17 -7 33 4 27 5
28 13 10 12 -27 27 -41 53 -49 13 -5 22 -3 22 3 0 6 -4 11 -10 11 -5 0 -10 5
-10 10 0 6 10 10 23 10 19 1 17 3 -9 14 -18 8 -35 19 -38 25 -4 5 -14 7 -22 4
-9 -3 -21 3 -30 16 -8 11 -20 21 -26 21 -6 0 -5 -7 3 -17 11 -13 11 -17 2 -20
-7 -3 -13 -12 -13 -21 0 -13 -4 -12 -22 6 -18 18 -20 24 -10 31 8 5 12 17 9
27 -4 17 -6 17 -12 -3 -4 -13 -12 -23 -17 -23 -5 0 -7 -13 -3 -30 4 -18 3 -30
-4 -30 -5 0 -13 15 -16 34 -6 28 -10 33 -27 28 -16 -4 -19 -2 -13 9 14 22 14
53 -1 73 -8 11 -17 16 -21 13 -4 -4 -2 -12 4 -18 12 -12 -3 -59 -18 -59 -5 0
-12 -18 -15 -40 -4 -22 -10 -37 -15 -34 -12 7 -11 84 1 84 18 0 11 39 -11 61
-11 11 -19 15 -18 7 4 -35 -1 -41 -21 -23 -22 20 -27 61 -7 68 6 3 2 6 -11 6
-17 1 -24 -6 -28 -29 -9 -42 -20 -37 -32 12 -8 32 -8 44 1 50 8 5 6 8 -5 8
-10 0 -18 4 -18 9 0 5 -10 11 -23 13 -18 3 -23 0 -24 -16 -1 -12 -5 -36 -8
-55 -10 -55 -25 -17 -22 58 1 43 -3 66 -11 69 -9 3 -8 8 3 19 19 19 19 25 -3
49 -10 10 -16 27 -14 37 2 12 -3 17 -17 17 -12 0 -21 -4 -21 -8 0 -13 -45 -7
-46 6 -1 7 -2 17 -3 22 -1 13 -21 13 -21 0 0 -11 -71 -79 -84 -80 -10 0 21 51
42 67 8 7 21 29 28 48 l12 35 -44 0 c-30 0 -46 5 -53 18 -9 15 -13 15 -32 4
-20 -13 -21 -12 -17 5 3 13 -2 24 -14 32 -15 9 -17 15 -8 26 9 11 6 13 -20 10
-20 -3 -33 1 -36 10 -3 7 -13 14 -22 14 -16 0 -54 7 -59 11 -3 2 -17 6 -30 9
-4 0 2 8 13 17 10 8 13 13 7 9 -7 -3 -19 -3 -25 2 -7 4 -15 8 -18 8 -60 9 -92
37 -75 65 3 5 -4 12 -17 15 -20 5 -23 12 -23 52 0 42 3 47 28 55 21 8 27 16
27 39 0 22 5 29 20 29 20 0 55 52 43 64 -4 3 1 6 10 6 9 0 17 -6 17 -14 0 -8
6 -17 13 -20 10 -5 10 -7 0 -12 -21 -9 -15 -19 27 -43 22 -12 40 -26 40 -32 0
-5 7 -9 16 -9 8 0 12 -4 9 -10 -3 -5 3 -10 14 -10 12 0 21 5 21 10 0 6 45 10
116 10 74 0 113 -4 109 -10 -3 -5 -2 -10 4 -10 5 0 13 9 16 20 3 11 15 20 26
20 10 0 19 5 19 10 0 6 7 10 16 10 8 0 12 5 9 10 -3 6 0 10 9 10 8 0 17 -6 20
-12 5 -10 7 -10 12 0 3 6 16 12 29 12 14 0 25 7 28 20 3 11 11 20 19 20 10 0
9 -3 -2 -11 -11 -8 -1 -9 35 -4 28 4 52 11 53 16 2 5 14 9 26 9 22 0 52 26 51
45 0 21 35 16 44 -7 9 -21 10 -21 11 -3 1 11 4 14 7 8 2 -7 15 -13 27 -13 17
0 23 9 32 44 8 35 7 43 -3 39 -8 -3 -13 4 -14 18 -1 21 -2 21 -6 4 -5 -17 -7
-15 -19 10 l-13 30 0 -35 c1 -54 1 -55 -27 -58 -24 -2 -26 1 -21 26 3 15 8 34
11 42 3 8 1 22 -4 30 -9 13 -11 13 -20 0 -5 -8 -10 -10 -11 -5 -2 15 2 76 6
97 2 10 0 18 -6 18 -5 0 -9 -7 -9 -16 0 -8 -5 -12 -11 -9 -5 4 -8 12 -7 17 6
16 -35 54 -58 54 -10 0 -32 3 -49 6 -16 3 -24 3 -17 1 6 -3 12 -9 12 -14 0 -6
-8 -5 -20 1 -11 6 -20 19 -20 30 0 14 6 18 24 14 20 -3 23 -1 19 16 -3 11 0
20 6 20 6 0 11 -5 11 -12 0 -6 3 -8 7 -5 3 4 12 -1 19 -11 15 -21 27 -11 27
23 0 14 3 25 8 25 14 0 10 27 -6 44 -8 8 -15 22 -15 30 0 9 -5 16 -11 16 -6 0
-8 -9 -3 -22 6 -19 5 -21 -8 -11 -8 7 -18 11 -21 8 -4 -3 -5 -2 -2 2 3 3 -5
11 -17 17 -34 17 -31 31 9 49 33 14 61 15 198 9 88 -4 203 -4 255 0 52 4 156
9 230 12 162 7 255 23 240 41 -6 7 -38 15 -72 19 -33 3 -67 11 -74 17 -10 9
-14 9 -14 0 0 -6 -7 -11 -15 -11 -8 0 -15 -4 -15 -10 0 -5 10 -10 22 -10 12 0
19 -2 17 -4 -2 -2 -59 -7 -125 -11 -119 -6 -121 -6 -127 15 -3 13 -10 19 -17
15 -8 -5 -8 -11 1 -21 10 -12 4 -14 -32 -14 -63 0 -76 11 -53 44 11 14 28 26
39 27 28 3 38 5 57 13 29 13 73 3 72 -16 -1 -13 6 -18 27 -18 20 0 27 -4 23
-14 -4 -11 0 -13 16 -9 16 4 18 8 8 14 -11 7 -10 11 2 19 11 7 11 10 2 10 -7
0 -11 4 -8 9 3 5 -9 15 -27 22 -17 7 -38 19 -45 26 -7 7 -29 13 -47 13 -19 0
-36 4 -40 9 -6 11 -64 9 -82 -2 -7 -4 -21 -3 -32 2 -10 6 -52 13 -93 17 -40 3
-91 14 -113 24 -22 9 -51 21 -65 25 -14 4 -27 11 -30 14 -3 4 -23 16 -45 27
-31 16 -57 20 -118 19 -68 -1 -80 1 -92 19 -17 24 -4 46 29 46 17 0 18 2 6 10
-11 7 -8 9 15 9 51 0 69 4 83 18 9 9 11 18 5 26 -7 8 -3 18 10 31 13 13 18 14
15 5 -6 -17 29 -66 39 -55 4 4 1 11 -7 16 -13 8 -12 12 4 27 17 17 18 17 11
-4 -3 -13 -2 -23 4 -23 16 0 25 61 10 71 -9 6 -10 9 -2 9 11 0 29 37 25 53 -1
4 3 7 8 7 6 0 10 12 10 26 0 17 -4 24 -13 21 -16 -6 -7 84 13 126 16 34 34 36
28 3 -6 -29 8 -57 20 -40 4 6 14 14 22 17 10 4 8 6 -7 6 -13 1 -23 6 -23 12 0
5 4 8 8 5 4 -2 6 10 4 29 -4 30 0 36 34 58 35 22 40 23 52 8 10 -12 15 -13 18
-3 8 17 33 15 40 -3 7 -18 24 -20 24 -2 0 7 9 23 20 34 21 23 28 66 14 98 -7
18 -6 18 9 6 19 -15 61 -8 83 14 20 20 17 29 -17 49 -17 10 -28 20 -25 23 3 3
-6 23 -20 44 -13 21 -24 43 -24 48 0 5 -10 11 -22 14 -12 4 -19 9 -16 13 12
11 -20 34 -47 34 -14 0 -24 4 -21 8 2 4 -16 14 -42 21 -26 8 -68 20 -94 28
-46 15 -48 14 -107 -15 -33 -16 -57 -33 -54 -36 4 -3 1 -6 -5 -6 -7 0 -12 5
-12 10 0 6 -7 10 -16 10 -8 0 -12 -4 -9 -10 3 -5 -3 -10 -15 -10 -12 0 -19 -4
-15 -10 7 -11 -46 -40 -75 -40 -13 0 -24 -8 -27 -20 -7 -25 -43 -27 -43 -2 0
13 -2 14 -9 3 -7 -11 -9 -11 -14 0 -4 11 -6 11 -6 1 -1 -7 4 -22 9 -33 6 -10
7 -19 2 -19 -12 0 -28 35 -42 93 -23 87 0 207 45 239 6 5 6 8 -2 8 -15 0 -4
41 17 60 27 24 34 117 13 159 -20 38 -43 52 -43 26z m-337 -772 c-7 -2 -19 -2
-25 0 -7 3 -2 5 12 5 14 0 19 -2 13 -5z m157 -18 c7 -4 4 -16 -7 -35 -13 -23
-14 -32 -4 -44 7 -8 10 -20 6 -25 -3 -6 0 -8 8 -5 11 4 17 -5 22 -35 4 -27 11
-39 18 -35 8 5 7 2 0 -7 -7 -7 -13 -26 -13 -41 0 -15 -5 -28 -11 -28 -8 0 -7
-5 1 -15 7 -9 10 -19 6 -22 -4 -4 -10 -3 -14 3 -4 6 -20 14 -37 18 -22 5 -26
4 -15 -4 10 -6 11 -10 3 -10 -7 0 -13 -12 -13 -26 0 -14 -4 -23 -9 -20 -5 4
-12 0 -14 -6 -3 -8 -6 -6 -6 5 -1 14 -10 17 -51 17 -27 0 -50 -3 -50 -8 0 -4
-9 -13 -19 -19 -17 -11 -18 -10 -12 15 7 23 13 26 37 24 32 -4 23 13 -11 20
-11 2 -19 10 -17 16 1 7 -9 12 -25 12 -22 0 -25 -2 -13 -10 10 -6 11 -10 3
-10 -7 0 -20 -15 -29 -32 -14 -29 -68 -88 -80 -88 -2 0 -4 11 -4 25 0 14 -4
25 -10 25 -5 0 -10 -4 -10 -10 0 -5 -7 -10 -15 -10 -8 0 -15 -8 -15 -18 0 -10
-3 -22 -7 -26 -5 -4 -9 -12 -9 -17 -1 -5 -2 -13 -3 -19 0 -5 -8 -10 -16 -10
-9 0 -15 -9 -15 -25 0 -14 -5 -25 -11 -25 -5 0 -8 -4 -5 -8 5 -9 -29 -43 -36
-36 -3 2 -3 -8 -1 -24 4 -29 -4 -46 -53 -110 -28 -37 -31 -47 -26 -92 3 -33 1
-50 -7 -50 -7 0 -9 -13 -7 -34 l5 -34 -42 10 c-23 5 -43 13 -45 18 -5 13 -75
-1 -90 -19 -11 -14 -12 -10 -7 24 9 61 15 75 31 75 8 0 14 9 14 20 0 11 6 20
13 21 9 0 9 2 -1 6 -6 2 -10 9 -6 14 3 5 7 19 9 31 3 13 9 24 15 26 5 2 10 9
10 16 0 7 9 21 20 31 11 10 19 23 18 29 -1 6 3 20 9 31 6 11 16 47 23 80 15
81 14 74 37 125 11 25 32 59 47 75 14 17 26 33 26 38 0 4 7 7 15 7 8 0 14 4
13 9 -4 12 54 61 72 61 11 0 12 2 3 8 -10 6 -8 12 5 24 9 8 25 24 34 34 29 33
46 44 68 44 12 0 30 10 40 23 18 22 18 22 -8 28 -20 5 -13 7 23 7 28 0 45 -2
39 -4 -17 -7 -4 -54 15 -54 14 0 14 -2 1 -10 -11 -7 -3 -10 30 -9 25 0 39 3
31 6 -11 5 -11 7 0 14 11 7 9 9 -6 10 -14 0 -9 5 15 14 19 7 27 14 18 14 -10
1 -18 8 -18 17 0 14 8 16 55 11 30 -3 59 -8 65 -12z m-173 -41 c-3 -3 -12 -4
-19 -1 -8 3 -5 6 6 6 11 1 17 -2 13 -5z m707 -263 c3 -5 -1 -11 -9 -15 -9 -3
-15 0 -15 9 0 16 16 20 24 6z m-784 -141 c0 -5 -4 -10 -10 -10 -5 0 -10 5 -10
10 0 6 5 10 10 10 6 0 10 -4 10 -10z m460 -64 c0 -3 -4 -8 -10 -11 -5 -3 -10
-1 -10 4 0 6 5 11 10 11 6 0 10 -2 10 -4z m-665 -83 c-7 -26 -17 -49 -23 -51
-14 -4 -16 20 -3 34 5 5 11 18 13 29 2 16 15 33 24 35 0 0 -4 -21 -11 -47z
m421 3 c-3 7 4 12 18 12 17 0 23 -5 19 -14 -9 -25 -49 -16 -62 14 l-12 27 22
-25 c11 -14 18 -20 15 -14z m227 22 c15 -7 27 -16 27 -20 0 -12 -20 -19 -32
-11 -18 11 -38 14 -78 14 l-35 0 35 13 c46 18 51 18 83 4z m527 -248 c13 -8
13 -10 -2 -10 -9 0 -20 5 -23 10 -8 13 5 13 25 0z m-832 -30 c1 0 2 -7 2 -15
0 -11 11 -15 41 -15 24 0 38 -4 34 -10 -4 -6 8 -10 29 -10 30 0 36 -4 36 -22
0 -12 3 -18 6 -15 4 3 16 1 28 -5 11 -7 29 -12 39 -13 10 -1 25 -11 33 -23 10
-14 26 -22 45 -22 20 0 29 -5 29 -16 0 -8 4 -13 10 -9 5 3 22 2 37 -2 l28 -7
-25 -6 c-15 -4 -25 -13 -26 -25 -2 -42 -4 -46 -16 -38 -7 4 -24 6 -37 4 -15
-2 -21 1 -17 8 5 7 -2 11 -16 11 -17 0 -24 6 -24 21 0 18 5 20 42 17 23 -1 40
0 37 5 -2 4 -16 7 -31 7 -21 0 -24 2 -12 10 11 7 8 10 -16 10 -17 0 -41 -8
-53 -19 -18 -15 -32 -18 -84 -14 -53 5 -65 2 -80 -14 -10 -12 -15 -27 -11 -37
5 -14 9 -15 15 -5 5 9 10 4 15 -15 4 -16 2 -31 -4 -35 -5 -3 -14 -23 -20 -43
-9 -34 -8 -37 11 -40 38 -6 -35 -38 -85 -38 -41 1 -84 20 -72 33 4 3 3 18 0
33 -7 24 -10 26 -46 20 -37 -6 -40 -5 -40 18 0 13 7 29 15 36 23 19 18 30 -15
30 -20 0 -30 5 -30 15 0 8 -7 15 -15 15 -17 0 -21 26 -4 32 6 2 13 25 16 51 4
30 10 47 19 47 7 0 21 11 30 24 8 14 21 23 27 20 7 -2 22 14 35 36 l22 39 48
-14 c26 -8 48 -15 50 -15z m1440 3 c-10 -2 -28 -2 -40 0 -13 2 -5 4 17 4 22 1
32 -1 23 -4z m-2206 -98 c0 -5 -5 -11 -11 -13 -6 -2 -11 4 -11 13 0 9 5 15 11
13 6 -2 11 -8 11 -13z m48 -19 c0 -3 -4 -8 -10 -11 -5 -3 -10 -1 -10 4 0 6 5
11 10 11 6 0 10 -2 10 -4z m-140 -67 c0 -18 -18 -9 -23 12 -4 16 -3 18 9 8 8
-6 14 -15 14 -20z m-293 -50 c16 -51 45 -99 81 -135 6 -7 12 -17 12 -21 0 -5
8 -18 18 -29 11 -11 23 -33 29 -49 5 -17 19 -34 31 -40 12 -5 25 -19 28 -30 4
-11 16 -29 28 -41 12 -11 32 -41 44 -66 13 -25 33 -56 43 -67 11 -12 17 -26
14 -31 -3 -6 1 -10 9 -10 9 0 13 -7 11 -19 -3 -14 1 -18 16 -14 15 4 19 0 19
-21 0 -25 -24 -38 -32 -16 -2 6 -9 6 -17 0 -12 -7 -12 -11 -2 -24 11 -13 11
-16 -3 -16 -22 0 -20 -7 9 -36 28 -28 31 -40 13 -47 -8 -3 -6 -6 4 -6 9 -1 23
-10 31 -22 8 -11 24 -21 35 -22 16 -1 20 -9 21 -42 4 -81 8 -112 14 -122 4 -6
-3 -8 -17 -6 -22 5 -23 3 -22 -56 1 -40 7 -66 19 -79 9 -10 20 -33 23 -51 4
-21 14 -36 26 -38 10 -3 18 -13 18 -22 0 -9 6 -23 13 -30 10 -11 10 -14 0 -18
-15 -6 -17 -33 -3 -33 6 0 10 -10 9 -22 0 -22 -1 -22 -9 -3 -5 11 -9 14 -9 8
-1 -15 -31 -18 -31 -3 0 6 -15 10 -33 10 -32 0 -32 1 -29 40 3 25 0 40 -7 40
-15 0 -14 -92 1 -126 10 -22 10 -28 0 -32 -7 -2 -12 -21 -12 -43 0 -21 -4 -39
-10 -39 -18 0 -11 -22 9 -27 12 -3 21 -16 23 -33 4 -26 1 -30 -31 -37 -49 -12
-50 -30 -2 -38 39 -6 58 -25 26 -25 -8 0 -15 -4 -15 -9 0 -5 7 -11 15 -15 8
-3 15 -12 15 -20 0 -8 7 -22 15 -30 13 -13 14 -19 3 -38 l-13 -23 -3 29 c-3
28 -5 28 -53 24 -58 -6 -71 -15 -46 -32 21 -16 22 -26 2 -26 -8 0 -15 -4 -15
-10 0 -5 25 -10 56 -10 l55 0 -2 -57 c-2 -37 2 -66 11 -80 11 -18 12 -25 2
-35 -9 -9 -12 -9 -12 0 0 7 -8 12 -18 12 -11 0 -27 9 -37 20 -10 12 -24 19
-31 16 -8 -3 -10 3 -6 17 5 20 4 21 -12 8 -16 -13 -17 -13 -14 5 3 19 -4 21
-46 13 -10 -2 -21 2 -24 10 -3 10 1 12 17 8 11 -3 21 -1 21 4 0 5 -11 9 -24 9
-19 0 -23 4 -19 20 3 11 1 20 -5 20 -28 0 -81 81 -74 113 1 4 -2 7 -8 7 -5 0
-10 -6 -11 -12 0 -7 -6 -2 -12 12 -6 14 -20 34 -29 44 -10 10 -15 23 -12 28 4
5 -3 18 -15 29 -13 12 -21 32 -21 53 0 18 -8 41 -20 54 -11 12 -20 27 -20 34
0 7 -12 36 -25 63 -14 28 -25 63 -25 79 0 16 -3 26 -7 22 -11 -10 -31 78 -44
194 -7 67 -9 169 -5 280 6 178 12 224 27 215 4 -3 8 12 7 33 0 21 3 53 6 69 5
19 3 34 -4 38 -8 5 -8 11 1 21 9 11 8 14 -2 14 -11 0 -11 2 1 10 12 7 15 46
18 207 2 109 5 204 8 212 7 22 22 1 41 -60z m263 31 c0 -5 -4 -10 -10 -10 -5
0 -10 5 -10 10 0 6 5 10 10 10 6 0 10 -4 10 -10z m-46 -16 c4 -9 4 -19 1 -22
-3 -3 -5 1 -5 9 0 11 -2 11 -10 -1 -8 -12 -10 -11 -10 8 0 26 15 29 24 6z m63
-26 c-3 -8 -6 -5 -6 6 -1 11 2 17 5 13 3 -3 4 -12 1 -19z m1383 10 c0 -9 4 -8
10 2 8 13 10 12 10 -2 0 -11 -8 -18 -20 -18 -11 0 -20 7 -20 15 0 8 5 15 10
15 6 0 10 -6 10 -12z m-1269 -51 c-8 -8 -11 -7 -11 4 0 20 13 34 18 19 3 -7
-1 -17 -7 -23z m-21 -9 c0 -7 -4 -19 -9 -27 -11 -17 -23 1 -15 23 7 19 24 21
24 4z m1470 -114 c0 -27 -4 -43 -10 -39 -17 11 -11 85 7 85 2 0 3 -21 3 -46z
m-51 -11 c0 -10 -4 -36 -8 -58 -9 -40 -9 -39 -10 18 0 32 3 57 9 57 6 0 10 -8
9 -17z m-729 -23 c0 -5 -9 -10 -19 -10 -11 0 -23 5 -26 10 -4 6 5 10 19 10 14
0 26 -4 26 -10z m530 -5 c0 -8 -4 -15 -10 -15 -5 0 -7 7 -4 15 4 8 8 15 10 15
2 0 4 -7 4 -15z m-1260 -91 c0 -2 -7 -4 -15 -4 -8 0 -15 4 -15 10 0 5 7 7 15
4 8 -4 15 -8 15 -10z m660 -114 c0 -5 -5 -10 -11 -10 -5 0 -7 5 -4 10 3 6 8
10 11 10 2 0 4 -4 4 -10z m40 -31 c0 -12 -36 -30 -44 -22 -10 10 -7 25 4 18 6
-3 10 -2 10 3 0 5 7 9 15 9 8 0 15 -4 15 -8z m-60 -34 c0 -8 -4 -15 -10 -15
-5 0 -7 7 -4 15 4 8 8 15 10 15 2 0 4 -7 4 -15z m-550 -105 c0 -5 -5 -10 -11
-10 -5 0 -7 5 -4 10 3 6 8 10 11 10 2 0 4 -4 4 -10z m77 -142 c-3 -8 -6 -5 -6
6 -1 11 2 17 5 13 3 -3 4 -12 1 -19z m588 -5 c-11 -3 -23 -10 -27 -17 -5 -7
-8 -7 -8 0 0 16 11 24 34 23 20 -1 20 -1 1 -6z m-598 -75 c-2 -13 -4 -5 -4 17
-1 22 1 32 4 23 2 -10 2 -28 0 -40z m463 42 c0 -5 7 -10 15 -10 12 0 10 -5 -5
-20 -12 -12 -18 -25 -15 -30 4 -6 2 -10 -4 -10 -14 0 -25 21 -27 53 -1 20 3
27 17 27 11 0 19 -4 19 -10z m180 -20 c0 -5 -2 -10 -4 -10 -3 0 -8 5 -11 10
-3 6 -1 10 4 10 6 0 11 -4 11 -10z m140 -4 c0 -20 -17 -36 -38 -36 -25 0 -25
0 -6 19 17 18 44 28 44 17z m-735 -57 c16 -8 15 -8 -8 -4 -21 4 -27 2 -21 -6
4 -8 3 -9 -4 -5 -16 10 -15 26 1 25 6 0 21 -5 32 -10z m95 -39 c0 -11 -4 -20
-10 -20 -5 0 -10 9 -10 20 0 11 5 20 10 20 6 0 10 -9 10 -20z m792 -25 c1 -11
-44 -37 -51 -30 -2 3 4 14 14 25 19 21 36 23 37 5z m-856 -3 c-5 -8 -66 -4
-66 4 0 2 16 4 36 4 19 0 33 -4 30 -8z m891 -84 c-3 -8 -6 -5 -6 6 -1 11 2 17
5 13 3 -3 4 -12 1 -19z m-954 -48 c3 -11 1 -18 -4 -14 -5 3 -9 12 -9 20 0 20
7 17 13 -6z m982 -29 c-3 -12 -11 -19 -16 -16 -5 4 -3 14 3 25 15 24 22 19 13
-9z m-1009 -28 c-10 -10 -19 5 -10 18 6 11 8 11 12 0 2 -7 1 -15 -2 -18z m272
15 c-2 -6 -10 -14 -16 -16 -7 -2 -10 2 -6 12 7 18 28 22 22 4z m36 -53 c4 -12
-3 -15 -30 -15 -21 0 -33 4 -29 10 4 6 10 8 15 5 5 -3 11 -1 15 5 9 15 22 12
29 -5z m868 -93 c-20 -5 -22 0 -15 43 l6 39 12 -39 c9 -33 8 -41 -3 -43z m26
42 c-3 -14 -5 -12 -10 9 -3 19 -2 25 4 19 6 -6 8 -18 6 -28z m-1024 -29 c3 -8
1 -15 -3 -15 -5 0 -11 7 -15 15 -3 8 -1 15 3 15 5 0 11 -7 15 -15z m837 -26
c-5 -13 -10 -19 -10 -12 -1 15 10 45 15 40 3 -2 0 -15 -5 -28z m-684 -11 c-3
-7 -5 -2 -5 12 0 14 2 19 5 13 2 -7 2 -19 0 -25z m893 -24 c0 -14 -4 -22 -10
-19 -5 3 -10 17 -10 31 0 14 4 22 10 19 6 -3 10 -17 10 -31z m-1143 -6 c-3 -8
-6 -5 -6 6 -1 11 2 17 5 13 3 -3 4 -12 1 -19z m1047 13 c8 -12 -3 -41 -15 -41
-5 0 -9 11 -9 25 0 25 14 34 24 16z m186 -75 c-13 -13 -39 21 -40 50 0 36 12
35 31 -3 13 -25 16 -40 9 -47z m-1223 12 c-3 -8 -6 -5 -6 6 -1 11 2 17 5 13 3
-3 4 -12 1 -19z m-125 -30 c-8 -8 -12 -9 -12 -1 0 6 -3 20 -6 30 -7 17 -6 17
12 1 14 -14 16 -20 6 -30z m224 -33 c1 -8 -2 -15 -7 -15 -5 0 -9 10 -9 22 0
23 12 17 16 -7z m811 -81 c-3 -3 -12 -4 -19 -1 -8 3 -5 6 6 6 11 1 17 -2 13
-5z m-63 -149 c11 -8 16 -18 11 -22 -4 -5 -10 -2 -12 5 -3 6 -13 12 -24 12
-10 0 -19 5 -19 10 0 14 22 12 44 -5z m31 -35 c-3 -5 -12 -10 -18 -10 -7 0 -6
4 3 10 19 12 23 12 15 0z m-27 -45 c-14 -14 -48 -13 -48 1 0 8 4 13 9 9 5 -3
13 0 16 6 5 8 10 8 18 0 6 -6 8 -13 5 -16z m-419 -885 c30 -5 57 -13 60 -18 3
-5 38 -10 77 -10 39 -1 90 -8 115 -17 24 -9 53 -19 64 -22 11 -3 31 -16 45
-29 14 -12 38 -28 54 -34 19 -7 26 -15 22 -25 -3 -9 7 -27 25 -44 28 -27 30
-32 23 -81 -5 -37 -10 -50 -20 -46 -8 3 -18 -3 -24 -14 -13 -24 -13 -40 0 -20
7 11 10 3 10 -30 0 -33 -3 -41 -10 -30 -7 11 -10 11 -10 2 0 -7 -4 -11 -9 -8
-5 3 -12 -13 -16 -37 -4 -23 -9 -46 -10 -52 -1 -5 -3 -17 -4 -25 -1 -13 -2
-13 -12 0 -8 12 -9 10 -5 -10 3 -14 6 -30 6 -37 0 -7 7 -10 15 -7 18 7 19 -9
4 -37 -6 -12 -7 -28 -3 -37 7 -16 9 -24 13 -63 0 -9 10 -19 20 -22 19 -4 19
-7 12 -84 -1 -7 -5 -13 -11 -13 -6 0 -8 15 -4 35 5 34 4 35 -26 35 -44 0 -61
-38 -36 -85 10 -18 15 -39 11 -46 -5 -7 -4 -10 3 -5 6 3 13 2 17 -4 3 -5 16
-10 28 -11 22 0 22 0 -1 -10 -13 -5 -20 -13 -17 -19 4 -6 -6 -10 -24 -10 -41
0 -40 -16 2 -25 28 -6 29 -8 12 -14 -21 -8 -58 3 -86 26 -8 7 -19 13 -23 13
-16 0 -116 52 -116 61 0 5 -7 9 -15 9 -8 0 -25 10 -38 23 -13 12 -43 33 -66
47 -47 28 -175 147 -183 170 -7 21 10 63 22 55 13 -8 13 -1 -4 39 -8 19 -17
69 -22 112 -4 44 -9 95 -11 114 -5 50 -7 178 -3 223 3 23 9 37 18 37 11 0 12
3 3 14 -9 11 -8 22 6 51 15 31 21 36 43 30 14 -3 49 -10 79 -15z m1036 10 c3
-5 1 -10 -4 -10 -6 0 -11 5 -11 10 0 6 2 10 4 10 3 0 8 -4 11 -10z m-574 -673
c-10 -9 -11 -8 -5 6 3 10 9 15 12 12 3 -3 0 -11 -7 -18z"/>
<path d="M5310 5006 c0 -13 -3 -31 -6 -40 -5 -12 0 -16 20 -16 29 0 32 13 14
53 -16 33 -28 35 -28 3z"/>
<path d="M5323 4813 c9 -2 23 -2 30 0 6 3 -1 5 -18 5 -16 0 -22 -2 -12 -5z"/>
<path d="M5227 4733 c-4 -3 -7 -11 -7 -17 0 -7 3 -7 8 0 4 7 18 14 32 17 l25
4 -26 2 c-14 0 -29 -2 -32 -6z"/>
<path d="M4816 4244 c-8 -20 -9 -20 32 -27 17 -4 32 -2 32 3 0 4 6 10 13 13 6
2 4 3 -5 2 -10 -2 -18 3 -18 11 0 20 -46 18 -54 -2z"/>
<path d="M5718 4483 c7 -3 16 -2 19 1 4 3 -2 6 -13 5 -11 0 -14 -3 -6 -6z"/>
<path d="M5590 4085 c0 -8 7 -15 15 -15 8 0 15 7 15 15 0 8 -7 15 -15 15 -8 0
-15 -7 -15 -15z"/>
<path d="M5528 4063 c7 -3 16 -2 19 1 4 3 -2 6 -13 5 -11 0 -14 -3 -6 -6z"/>
<path d="M5520 4040 c0 -5 7 -7 15 -4 8 4 15 8 15 10 0 2 -7 4 -15 4 -8 0 -15
-4 -15 -10z"/>
<path d="M4276 3853 c9 -37 24 -53 24 -26 0 28 -10 53 -21 53 -5 0 -6 -12 -3
-27z"/>
<path d="M4216 3388 c-6 -25 -8 -174 -2 -167 5 5 16 189 11 189 -1 0 -5 -10
-9 -22z"/>
<path d="M4635 3179 c-4 -6 -5 -13 -2 -16 7 -7 27 6 27 18 0 12 -17 12 -25 -2z"/>
<path d="M4692 3141 c-9 -5 -11 -17 -6 -34 8 -33 20 -35 28 -4 12 45 6 56 -22
38z"/>
<path d="M4212 2955 c0 -16 2 -22 5 -12 2 9 2 23 0 30 -3 6 -5 -1 -5 -18z"/>
<path d="M4720 2805 c0 -9 9 -15 21 -15 18 0 19 2 9 15 -7 8 -16 15 -21 15 -5
0 -9 -7 -9 -15z"/>
<path d="M4283 2745 c-16 -17 -17 -35 -3 -35 7 0 7 -7 0 -20 -13 -24 -6 -40
18 -40 14 0 15 2 3 9 -12 8 -13 14 -3 36 23 49 12 82 -15 50z"/>
<path d="M4596 2324 c-11 -7 -16 -17 -13 -21 4 -4 15 1 24 10 22 21 14 30 -11
11z"/>
<path d="M4470 2280 c0 -14 15 -19 29 -11 9 6 7 10 -8 14 -12 3 -21 1 -21 -3z"/>
<path d="M4616 2204 c-11 -8 -16 -14 -10 -14 13 0 39 18 34 24 -3 2 -14 -2
-24 -10z"/>
<path d="M4680 2110 c0 -5 10 -14 22 -21 18 -10 20 -9 15 6 -4 9 -7 19 -7 21
0 2 -7 4 -15 4 -8 0 -15 -4 -15 -10z"/>
<path d="M5598 623 c7 -3 16 -2 19 1 4 3 -2 6 -13 5 -11 0 -14 -3 -6 -6z"/>
<path d="M5573 515 c-18 -20 -18 -20 27 -20 31 0 40 3 38 15 -4 20 -50 24 -65
5z"/>
<path d="M5507 484 c-13 -13 -7 -24 14 -24 11 0 19 5 17 12 -5 14 -22 21 -31
12z"/>
<path d="M5554 459 c-3 -6 0 -15 7 -20 29 -18 39 -7 15 17 -11 10 -17 11 -22
3z"/>
<path d="M5830 5739 c0 -5 5 -7 10 -4 6 3 10 8 10 11 0 2 -4 4 -10 4 -5 0 -10
-5 -10 -11z"/>
<path d="M8411 5634 c0 -11 3 -14 6 -6 3 7 2 16 -1 19 -3 4 -6 -2 -5 -13z"/>
<path d="M4100 5214 c-13 -34 -13 -47 2 -42 6 2 12 18 12 36 1 39 -1 40 -14 6z"/>
<path d="M6631 5187 c-52 -23 -96 -47 -98 -54 -2 -6 8 -14 23 -17 16 -4 37
-17 48 -30 12 -12 46 -31 77 -41 53 -17 58 -17 100 -1 25 10 55 32 71 52 26
35 26 36 7 55 -11 11 -17 24 -14 29 10 16 -47 50 -84 50 -21 0 -76 -18 -130
-43z"/>
<path d="M3720 5201 c0 -5 7 -14 15 -21 16 -14 18 -10 9 14 -6 17 -24 22 -24
7z"/>
<path d="M4136 5082 c-4 -12 -12 -22 -17 -22 -5 0 -9 -5 -9 -11 0 -8 5 -7 16
2 13 10 17 10 24 -1 15 -24 18 -7 5 24 -12 28 -13 29 -19 8z"/>
<path d="M4136 5015 c-3 -8 -1 -15 4 -15 6 0 10 7 10 15 0 8 -2 15 -4 15 -2 0
-6 -7 -10 -15z"/>
<path d="M4065 4941 c3 -5 1 -12 -5 -16 -6 -4 -7 -11 -4 -17 4 -6 10 -5 15 3
12 19 11 39 -2 39 -5 0 -8 -4 -4 -9z"/>
<path d="M6331 4862 c-1 -12 -8 -33 -17 -46 -10 -17 -12 -26 -4 -31 8 -5 8
-11 0 -20 -7 -8 -9 -18 -6 -23 3 -5 -1 -18 -9 -28 -19 -26 -19 -42 3 -47 14
-4 15 -5 1 -6 -18 -1 -32 -48 -18 -57 8 -5 13 9 10 28 0 4 6 5 14 2 8 -4 12
-10 9 -15 -3 -5 0 -9 5 -9 6 0 11 7 11 15 0 8 -6 15 -12 15 -10 0 -10 2 -1 8
7 4 15 27 19 51 l7 44 11 -34 c6 -19 13 -34 16 -34 3 0 20 15 38 33 17 17 27
32 22 32 -5 0 -12 11 -16 25 -3 14 -10 25 -15 25 -5 0 -9 12 -9 26 0 20 -4 25
-22 22 -16 -2 -24 4 -29 22 -7 24 -7 24 -8 2z"/>
<path d="M6141 4854 c0 -11 3 -14 6 -6 3 7 2 16 -1 19 -3 4 -6 -2 -5 -13z"/>
<path d="M4070 4800 c0 -11 2 -20 4 -20 2 0 6 9 9 20 3 11 1 20 -4 20 -5 0 -9
-9 -9 -20z"/>
<path d="M7390 4815 c0 -16 32 -66 49 -74 24 -14 32 -4 19 23 -6 11 -14 28
-18 36 -7 15 -50 28 -50 15z"/>
<path d="M6141 4664 c0 -11 3 -14 6 -6 3 7 2 16 -1 19 -3 4 -6 -2 -5 -13z"/>
<path d="M4200 4645 c-17 -21 -5 -31 15 -12 8 9 15 18 15 21 0 11 -18 6 -30
-9z"/>
<path d="M4308 4653 c6 -2 9 -9 6 -15 -4 -6 2 -5 15 1 28 16 26 21 -6 20 -16
0 -22 -3 -15 -6z"/>
<path d="M6372 4637 c-7 -8 -7 -18 -2 -27 6 -8 10 -13 11 -10 0 3 2 15 5 28 4
25 1 28 -14 9z"/>
<path d="M4101 4593 c1 -17 3 -21 6 -10 6 24 21 21 26 -5 4 -21 4 -20 6 3 0
16 -5 29 -15 33 -23 9 -24 8 -23 -21z"/>
<path d="M4150 4586 c0 -8 4 -17 9 -20 10 -7 23 19 14 28 -11 11 -23 6 -23 -8z"/>
<path d="M4534 4579 c-3 -6 -1 -16 5 -22 8 -8 11 -5 11 11 0 24 -5 28 -16 11z"/>
<path d="M4243 4549 c-6 -14 -7 -32 -3 -39 4 -7 6 -19 3 -27 -3 -8 2 -13 16
-13 14 0 26 -10 33 -27 l12 -28 5 40 c6 37 4 40 -19 45 -19 4 -26 13 -30 40
l-5 34 -12 -25z"/>
<path d="M4484 4531 c3 -18 6 -40 6 -47 0 -8 4 -14 8 -14 12 0 4 72 -9 84 -9
8 -10 3 -5 -23z"/>
<path d="M4534 4499 c-3 -6 -2 -15 4 -21 6 -6 11 -2 15 11 5 22 -7 29 -19 10z"/>
<path d="M4421 4454 c0 -11 3 -14 6 -6 3 7 2 16 -1 19 -3 4 -6 -2 -5 -13z"/>
<path d="M4480 4441 c0 -5 -3 -17 -7 -27 -4 -11 -2 -15 4 -11 19 12 36 -39 28
-80 -5 -21 -9 -42 -10 -48 0 -5 -6 -9 -13 -7 -21 4 -13 -37 9 -48 11 -7 23 -9
27 -6 3 3 1 6 -4 6 -5 0 -11 11 -12 25 -1 14 3 25 8 25 6 0 10 7 10 15 0 8 5
15 12 15 6 0 9 3 5 6 -3 3 -1 18 4 32 6 14 8 36 5 48 -6 23 -66 73 -66 55z"/>
<path d="M4134 4415 c-1 -14 2 -25 7 -25 5 0 9 11 9 25 0 33 -15 33 -16 0z"/>
<path d="M4182 4400 c5 -23 38 -25 38 -3 0 12 -7 19 -20 19 -13 0 -20 -6 -18
-16z"/>
<path d="M4195 4340 c-3 -5 -1 -10 4 -10 6 0 11 5 11 10 0 6 -2 10 -4 10 -3 0
-8 -4 -11 -10z"/>
<path d="M4551 4314 c0 -11 3 -14 6 -6 3 7 2 16 -1 19 -3 4 -6 -2 -5 -13z"/>
<path d="M4265 4270 c-3 -5 1 -10 10 -10 9 0 13 5 10 10 -3 6 -8 10 -10 10 -2
0 -7 -4 -10 -10z"/>
<path d="M6725 4260 c-3 -5 1 -10 9 -10 8 0 18 5 21 10 3 6 -1 10 -9 10 -8 0
-18 -4 -21 -10z"/>
<path d="M6508 4253 c7 -3 16 -2 19 1 4 3 -2 6 -13 5 -11 0 -14 -3 -6 -6z"/>
<path d="M6558 4253 c7 -3 16 -2 19 1 4 3 -2 6 -13 5 -11 0 -14 -3 -6 -6z"/>
<path d="M7195 4251 c-6 -5 -21 -11 -35 -13 l-25 -3 24 -14 c30 -17 111 -21
111 -5 0 15 -33 44 -51 44 -8 0 -19 -4 -24 -9z"/>
<path d="M7337 4215 c-4 -8 -2 -17 3 -20 6 -4 10 3 10 14 0 25 -6 27 -13 6z"/>
<path d="M7003 4203 c9 -2 25 -2 35 0 9 3 1 5 -18 5 -19 0 -27 -2 -17 -5z"/>
<path d="M4500 4190 c0 -5 5 -10 10 -10 6 0 10 5 10 10 0 6 -4 10 -10 10 -5 0
-10 -4 -10 -10z"/>
<path d="M4447 4133 c-4 -3 -7 -19 -7 -34 0 -21 4 -27 15 -23 9 4 15 19 15 35
0 28 -9 37 -23 22z"/>
<path d="M6098 4133 c7 -3 16 -2 19 1 4 3 -2 6 -13 5 -11 0 -14 -3 -6 -6z"/>
<path d="M4346 4085 c4 -8 8 -15 10 -15 2 0 4 7 4 15 0 8 -4 15 -10 15 -5 0
-7 -7 -4 -15z"/>
<path d="M6058 3943 c7 -3 16 -2 19 1 4 3 -2 6 -13 5 -11 0 -14 -3 -6 -6z"/>
<path d="M6222 3853 c-5 -10 -6 -38 -2 -63 l7 -45 2 47 c1 39 4 46 17 41 14
-5 15 -3 5 15 -14 27 -18 27 -29 5z"/>
<path d="M6298 3783 c-23 -6 -23 -21 -1 -19 13 1 19 -9 23 -34 l6 -35 6 28 c6
31 0 68 -11 66 -3 -1 -14 -3 -23 -6z"/>
<path d="M6388 3766 c-3 -16 -1 -23 7 -19 7 2 11 13 8 24 -7 25 -10 24 -15 -5z"/>
<path d="M6342 3691 c-10 -27 -1 -63 11 -44 6 9 7 73 1 73 -1 0 -7 -13 -12
-29z"/>
<path d="M5437 3515 c-6 -13 1 -25 14 -25 14 0 18 28 4 34 -7 2 -16 -1 -18 -9z"/>
<path d="M5698 3463 c12 -2 32 -2 45 0 12 2 2 4 -23 4 -25 0 -35 -2 -22 -4z"/>
<path d="M7406 3313 c-4 -9 -3 -20 2 -25 11 -11 36 17 27 32 -9 15 -22 12 -29
-7z"/>
<path d="M7226 3194 c-4 -10 -2 -22 3 -27 7 -7 13 -5 17 7 4 10 2 22 -3 27 -7
7 -13 5 -17 -7z"/>
<path d="M7094 3053 c-17 -17 -17 -18 0 -21 18 -4 46 14 46 29 0 15 -28 10
-46 -8z"/>
<path d="M7030 3008 c0 -17 2 -18 15 -8 8 7 15 14 15 15 0 2 -7 5 -15 9 -10 4
-15 -1 -15 -16z"/>
<path d="M7000 2956 c0 -9 5 -16 10 -16 6 0 10 4 10 9 0 6 -4 13 -10 16 -5 3
-10 -1 -10 -9z"/>
<path d="M6920 2893 c-16 -6 -30 -23 -30 -35 0 -19 39 -6 54 17 17 26 10 31
-24 18z"/>
<path d="M5992 2855 c0 -16 2 -22 5 -12 2 9 2 23 0 30 -3 6 -5 -1 -5 -18z"/>
<path d="M6865 2830 c-3 -5 -1 -10 4 -10 6 0 11 5 11 10 0 6 -2 10 -4 10 -3 0
-8 -4 -11 -10z"/>
<path d="M6790 2776 c0 -19 -5 -26 -20 -26 -16 0 -20 -7 -20 -30 0 -33 -3 -35
-31 -20 -24 13 -24 2 -1 -28 l18 -24 30 44 c16 24 35 49 42 57 15 16 12 43 -5
49 -8 2 -13 -6 -13 -22z"/>
<path d="M6750 2780 c0 -5 5 -10 11 -10 5 0 7 5 4 10 -3 6 -8 10 -11 10 -2 0
-4 -4 -4 -10z"/>
<path d="M6420 2686 c0 -8 5 -18 10 -21 6 -3 10 1 10 9 0 8 -4 18 -10 21 -5 3
-10 -1 -10 -9z"/>
<path d="M6667 2682 c-18 -20 -47 -22 -93 -7 -16 5 -23 2 -27 -14 -3 -12 -13
-21 -22 -21 -19 0 -45 23 -45 41 0 10 -3 10 -12 1 -8 -8 -8 -15 0 -25 7 -8 9
-27 6 -46 -4 -20 -3 -31 5 -31 6 0 11 -7 11 -15 0 -8 7 -15 16 -15 18 0 44 23
44 39 0 17 18 13 29 -6 9 -17 10 -17 16 0 4 9 14 17 21 17 8 0 20 11 26 25 9
19 14 22 25 13 19 -15 25 -6 21 32 -3 32 -3 32 -21 12z"/>
</g>
</svg>
